<mxfile host="app.diagrams.net" modified="2024-06-07T10:06:37.235Z" agent="Mozilla/5.0 (Windows NT 10.0; Win64; x64) AppleWebKit/537.36 (KHTML, like Gecko) Chrome/125.0.0.0 Safari/537.36 Edg/125.0.0.0" etag="lnY8QloC0YQxJWZYgwhM" version="24.5.1" type="github">
  <diagram id="C5RBs43oDa-KdzZeNtuy" name="Page-1">
    <mxGraphModel dx="1379" dy="764" grid="1" gridSize="10" guides="1" tooltips="1" connect="1" arrows="1" fold="1" page="1" pageScale="1" pageWidth="827" pageHeight="1169" math="0" shadow="0">
      <root>
        <mxCell id="WIyWlLk6GJQsqaUBKTNV-0" />
        <mxCell id="WIyWlLk6GJQsqaUBKTNV-1" parent="WIyWlLk6GJQsqaUBKTNV-0" />
        <mxCell id="WIyWlLk6GJQsqaUBKTNV-9" value="" style="edgeStyle=orthogonalEdgeStyle;rounded=0;html=1;jettySize=auto;orthogonalLoop=1;fontSize=11;endArrow=block;endFill=0;endSize=8;strokeWidth=1;shadow=0;labelBackgroundColor=none;exitX=0.5;exitY=1;exitDx=0;exitDy=0;exitPerimeter=0;entryX=0.5;entryY=0;entryDx=0;entryDy=0;" parent="WIyWlLk6GJQsqaUBKTNV-1" source="kvc4LLjoX2ohHxMDiTU2-4" target="kvc4LLjoX2ohHxMDiTU2-5" edge="1">
          <mxGeometry y="10" relative="1" as="geometry">
            <mxPoint as="offset" />
            <mxPoint x="270" y="500" as="sourcePoint" />
            <mxPoint x="320" y="500" as="targetPoint" />
            <Array as="points">
              <mxPoint x="630" y="560" />
              <mxPoint x="135" y="560" />
            </Array>
          </mxGeometry>
        </mxCell>
        <mxCell id="kvc4LLjoX2ohHxMDiTU2-56" value="" style="edgeStyle=orthogonalEdgeStyle;rounded=0;orthogonalLoop=1;jettySize=auto;html=1;" edge="1" parent="WIyWlLk6GJQsqaUBKTNV-1" source="kvc4LLjoX2ohHxMDiTU2-1" target="kvc4LLjoX2ohHxMDiTU2-4">
          <mxGeometry relative="1" as="geometry" />
        </mxCell>
        <mxCell id="kvc4LLjoX2ohHxMDiTU2-1" value="Transact(T24) DB&lt;br&gt;(RECID,XMLRECORD)" style="shape=cylinder3;whiteSpace=wrap;html=1;boundedLbl=1;backgroundOutline=1;size=15;" vertex="1" parent="WIyWlLk6GJQsqaUBKTNV-1">
          <mxGeometry x="550" y="220" width="160" height="110" as="geometry" />
        </mxCell>
        <mxCell id="kvc4LLjoX2ohHxMDiTU2-4" value="TODS DB&lt;br&gt;(RECID, Fld1, Fld2, Fld3)" style="shape=cylinder3;whiteSpace=wrap;html=1;boundedLbl=1;backgroundOutline=1;size=15;" vertex="1" parent="WIyWlLk6GJQsqaUBKTNV-1">
          <mxGeometry x="550" y="380" width="160" height="110" as="geometry" />
        </mxCell>
        <mxCell id="kvc4LLjoX2ohHxMDiTU2-5" value="Management Reporting" style="shape=document;whiteSpace=wrap;html=1;boundedLbl=1;" vertex="1" parent="WIyWlLk6GJQsqaUBKTNV-1">
          <mxGeometry x="40" y="590" width="190" height="80" as="geometry" />
        </mxCell>
        <mxCell id="kvc4LLjoX2ohHxMDiTU2-8" value="" style="endArrow=classic;html=1;rounded=0;exitX=0.5;exitY=1;exitDx=0;exitDy=0;exitPerimeter=0;entryX=0.5;entryY=0;entryDx=0;entryDy=0;" edge="1" parent="WIyWlLk6GJQsqaUBKTNV-1" source="kvc4LLjoX2ohHxMDiTU2-4" target="kvc4LLjoX2ohHxMDiTU2-10">
          <mxGeometry width="50" height="50" relative="1" as="geometry">
            <mxPoint x="240" y="700" as="sourcePoint" />
            <mxPoint x="420" y="680" as="targetPoint" />
            <Array as="points">
              <mxPoint x="630" y="560" />
            </Array>
          </mxGeometry>
        </mxCell>
        <mxCell id="kvc4LLjoX2ohHxMDiTU2-9" value="SSRS" style="shape=process;whiteSpace=wrap;html=1;backgroundOutline=1;" vertex="1" parent="WIyWlLk6GJQsqaUBKTNV-1">
          <mxGeometry x="240" y="700" width="240" height="80" as="geometry" />
        </mxCell>
        <mxCell id="kvc4LLjoX2ohHxMDiTU2-10" value="REST API&lt;br&gt;/tableName&lt;div&gt;&lt;br/&gt;&lt;/div&gt;" style="rounded=0;whiteSpace=wrap;html=1;" vertex="1" parent="WIyWlLk6GJQsqaUBKTNV-1">
          <mxGeometry x="550" y="840" width="160" height="60" as="geometry" />
        </mxCell>
        <mxCell id="kvc4LLjoX2ohHxMDiTU2-32" value="" style="endArrow=classic;html=1;rounded=0;exitX=0.5;exitY=1;exitDx=0;exitDy=0;exitPerimeter=0;entryX=0.5;entryY=0;entryDx=0;entryDy=0;" edge="1" parent="WIyWlLk6GJQsqaUBKTNV-1" source="kvc4LLjoX2ohHxMDiTU2-4" target="kvc4LLjoX2ohHxMDiTU2-9">
          <mxGeometry width="50" height="50" relative="1" as="geometry">
            <mxPoint x="320" y="520" as="sourcePoint" />
            <mxPoint x="450" y="639" as="targetPoint" />
            <Array as="points">
              <mxPoint x="630" y="560" />
              <mxPoint x="450" y="560" />
              <mxPoint x="360" y="560" />
            </Array>
          </mxGeometry>
        </mxCell>
        <mxCell id="kvc4LLjoX2ohHxMDiTU2-34" value="External System" style="shape=process;whiteSpace=wrap;html=1;backgroundOutline=1;" vertex="1" parent="WIyWlLk6GJQsqaUBKTNV-1">
          <mxGeometry x="550" y="960" width="160" height="60" as="geometry" />
        </mxCell>
        <mxCell id="kvc4LLjoX2ohHxMDiTU2-35" value="" style="endArrow=classic;html=1;rounded=0;exitX=0.5;exitY=1;exitDx=0;exitDy=0;entryX=0.5;entryY=0;entryDx=0;entryDy=0;" edge="1" parent="WIyWlLk6GJQsqaUBKTNV-1" source="kvc4LLjoX2ohHxMDiTU2-10" target="kvc4LLjoX2ohHxMDiTU2-34">
          <mxGeometry width="50" height="50" relative="1" as="geometry">
            <mxPoint x="425" y="910" as="sourcePoint" />
            <mxPoint x="425" y="970" as="targetPoint" />
          </mxGeometry>
        </mxCell>
        <mxCell id="kvc4LLjoX2ohHxMDiTU2-45" value="" style="edgeStyle=orthogonalEdgeStyle;rounded=0;orthogonalLoop=1;jettySize=auto;html=1;" edge="1" parent="WIyWlLk6GJQsqaUBKTNV-1" source="kvc4LLjoX2ohHxMDiTU2-43" target="kvc4LLjoX2ohHxMDiTU2-1">
          <mxGeometry relative="1" as="geometry" />
        </mxCell>
        <mxCell id="kvc4LLjoX2ohHxMDiTU2-43" value="" style="verticalLabelPosition=bottom;verticalAlign=top;html=1;shape=process;whiteSpace=wrap;rounded=1;size=0.14;arcSize=6;" vertex="1" parent="WIyWlLk6GJQsqaUBKTNV-1">
          <mxGeometry x="240" y="230" width="240" height="90" as="geometry" />
        </mxCell>
        <mxCell id="kvc4LLjoX2ohHxMDiTU2-58" value="" style="edgeStyle=orthogonalEdgeStyle;rounded=0;orthogonalLoop=1;jettySize=auto;html=1;entryX=0;entryY=0.5;entryDx=0;entryDy=0;exitX=0.5;exitY=1;exitDx=0;exitDy=0;exitPerimeter=0;" edge="1" parent="WIyWlLk6GJQsqaUBKTNV-1" source="kvc4LLjoX2ohHxMDiTU2-0" target="kvc4LLjoX2ohHxMDiTU2-43">
          <mxGeometry relative="1" as="geometry">
            <mxPoint x="155" y="265" as="targetPoint" />
          </mxGeometry>
        </mxCell>
        <mxCell id="kvc4LLjoX2ohHxMDiTU2-0" value="Transact(T24) DB&lt;br&gt;(RECID,XMLRECORD)" style="shape=cylinder3;whiteSpace=wrap;html=1;boundedLbl=1;backgroundOutline=1;size=15;" vertex="1" parent="WIyWlLk6GJQsqaUBKTNV-1">
          <mxGeometry x="60" y="90" width="150" height="110" as="geometry" />
        </mxCell>
        <mxCell id="kvc4LLjoX2ohHxMDiTU2-46" value="" style="shape=image;html=1;verticalLabelPosition=bottom;verticalAlign=top;imageAspect=0;image=data:image/png,iVBORw0KGgoAAAANSUhEUgAAAQkAAACkCAYAAACEndvgAAAAAXNSR0IArs4c6QAAAARnQU1BAACxjwv8YQUAAAAJcEhZcwAADsMAAA7DAcdvqGQAABO5SURBVHhe7Z29juNGEsf3ce5eYTJf6scwoNDBRecnOMCRNne+foIJbGNjA04NXDDGOlg7sXfhDxiGMWusrqs/2FXF6iKlkZqk9P8BhRHZzf6guv4sUs2eZwcAAHDYhEg8exaa+d9/4O8t/AWrYxvfCg2g//wPduVG3zNYHxcViT///PNk49AVxhpUsCszRBKr5OIi8cEHHxxtWiQQSdyGIZJYJ5sQiXYk8ePh/vDXYb/Xn081KkPy8PKVuf/+c3XMtz/mbb6/1bZXh/1P1jHacr7CT28Od3G/Ls/Y9/nv+SDi98Mu7Nt9mzcVqY/6GLZ/KD/QaPPdy79CIu+vJJ2v1v5siCRWycYjCe4YyklOslYZav/+zeEhO15JewjOLAa80zZyVumAhsU6VJlh335wNt1Otk+0L22n44oZx0eB4PuSQNV2pmMeftL1ljSipFntM/bHOms7EUmsE1ckvvjyq8Pz58+bRukeRSR+/eW3weZsLxtJzBjcVr2fB8ccrvSNPOFzvOLOjCCk6HDT7VH7yPlEW7Tp4xv1GWJ4/20QCi1wVN+3v7MyrfZZ+9U2IolV4n4rJASP7941jdI9ziUSIpLIV1ji4eWb8cAkZx3S2WBmxxG2A84c3NEpiqPXNBkh8GPy55dTzptNRwIjs9qp6/OiFXV8sz4SD9WHPf3leUseXT8rfzC1X4kZIol10kUkjrV2JEGDrDq4eR9cBl0c+DJtEAaRxi2XwUjH6P3cSSiN19P6nLDFSRm176hIwNqXogO7TpW3WR+PMOoxJIbiXMZjeZn0mcOjEYaOqBBJrJJtRRKjwawHJncSNpijKMgrpRjog43LMPfH8hr1DlGG0bYY5bC8LTPaK81qp7UvWCxL91XlbdZnRRLhM+XP30M9j7zMRlt0GapORBLrZFIk3r59c/jwoxcjo/29RIKuMHEgscE5GnSjgcmugsaAfJJINK6wMq3RNhIRVwDIePmWcefN1nR06zmI1x9mokx+TK5fPIdp9JeXp/ZTu8QtESKJVTJLJFo2VySOtWYkEQdZHczW7cYw6EYDnDlBc/DLQVxN7Y/HO8fEdMLOE9stxM6wKCbKcUO55VcKEjleRtwuQhCct7YnCYB8PmG0eSRelKf1jKXkn3gGw8u3ylDbiCTWyaRIvH79umndIwmyPDgJ68ElPX0vaAerDy5bA9Ub3JzW8dXGAibzaCc3TbQ5IPIn5x8Qaaq9+t6/1U92bgkZWehjqH4tKry/kiQm43qFYCKSWCWbEIkaScCu2RBJrBNXJM41T+JYcyOJq7LxFXf6ecUVGyKJVXLRb4Wc/VQTIJK4CUMksU42Id3XG0nAhCGSWCXb+FYokqABhL9X/xesj/DNAABAG4gEAMBlsyLx/v1784GnZQCA09msSDw+Ph7evPr68N39J65BJAB4GpsRCR0dkH3/8tPDD9+8EJOxuM0TiYfD/u5ZfHAW7W4vZzma3B92z+4O++mMAGyeTYmEjhLmmCsSD/vDXRCGHZ/RFPbtxzOcFBAJcDt0E4lzzN60RGDK2iKRIgghELOBSIDboZtIkBBYa1IUo3SPs4tEjCJ2xrRoRo40yq1IFRQuElowjLT7Wg6V8bC/G8q8Gw7Mefc7I03eEp0mbACcxm2LhPv8gZyWOWQUDEsY+GdCpwXHLvXcJwEYnD9uF6HKeUuFPI0+QxnAQiCSyJsjjPT7XRGNY0SilUbMzJsjmhpZANCPriJBC9U8ZZUrSwSmrCkSU88k1iQSmXKbgqAC9KS7SLSsv0gEcvgvnC6IQ/p1g5yUpQnR4A6sxCaWOdfx+fZU3gQJBSIK0JOuImEtXFNsEZEgcihfHgqKeRIizXHgLDbRdrsjHJ9vO2m8fO8WCYALAJEAALh0E4lzzJM41QAAp9NNJAAA2wQiAQBwgUgAAFwgEgAAF4gEAMAFIgEAcIFIAABcIBJngWZHlhmRyepUby+NaK2MRcfxaeAsT7CpqdnxPY9YkT7WmwGa2yIb2AndltOpfQ+l7mrf+Tnjr+vzWazWfipje1Ph+fmsn0/pC0RC8e7du8Mff/wxTMSiz7TPRw3wOI3aes9Dkad9C58U7460yqDtMIhbzkzlCrGpx0YnaKQt6wy6jyfC+z6cS2LcV+v02ftJPM/QtiZn6ruAl8k/H98XiASDxODnn38+fPzxx8P/JaXPtM8XCv0lt74gjnoxbAQd5whNFJh6BeSQEFRnn9c2fvVdBqOPJyD7zpHOcb+z62rtDwkXPD/n6bvE/p4jR/blJkWCT9nWxgWCCwVFFG2ML6FxtR5wnDxBx3nRSEtk9JVCH8u382daDWtor4dRJ+srXYWHUH3IlOrYBeer0VUqp+RNWXNb2Cpe3Nnnla37zqG8dv21ntb+gIjOWrDz2Soj7yer/a77xs7rlZnThir4dutzYFZfKjcrEloItH322WfRyjYd04a+hNYXrdLKQJ38oui4U0SCH0fIY8e3G6ld43IaqKuQHZ7zOlMd2hGF80RyW0rbqB7Rj4JXNm1bx1BxVp0EL4+j97fLrqT2DOdH9CGlDecqCgbvh9UGYqpM3UarTCvfVF8qEImGHS8S+UuIXz7/AvQXlBnl0/Av0iqjddXUA4C2kxAIkYrkcuPV2yrLQrWLC10cwKWeUl6uo2Rq9lvl09tzyo7buuyWKFVaAiL3t843x+mD0e8qsPo4jlPm7DSdb05fKjd9u1Gcv/wlO8fthv9MoJAG7/gqXKDjmDPqMlxn4/tb9RMsrXnlHlP6J/op2sMHoar/FJGYW3bc5mXPcwY7GtL7ddkWc/uQWE4kaHuqL5WbfXBpiUTfB5eBfHUUAzQMprm/btgCox3DqV+lyVsRBxrwd7sQRbCBRn0px0aHKOXq+pM4jq/cVh/z9lFls206zj5JFVEeQ++PfZ46N04f4mf2ncXyW98vxyszncuhzDieeH3W58CsvlRuWiS0ESQGT/4JNFAdjtJKmJxMOEgcLCx9+PLoOD6IWB5Vl2ZeJEOM0+jqFtvAHXNEGpzSAfO+2AcSkFKuVb/sTypG5+Pb88vmfY/fAauHLKVZ9ROt/QEuOM1z4/UhIL5r2e543mm/qJSYKDMKQzm2tSqaccyonjY3KxJXzZFXCotWCL56ztD3MTJC2ey5ici+zAEicaXEq+jJI5muPPPvWdfG0/o+Jl7lh/K2fW5kX+YBkQAAuEAkAAAuEAkAgAtEAgDgctMiwX/+9AyAW+bmRaJMmmoZRALcOhAJQxi4QSTArQORCELw6y+/mTZbJIwZePR7tJjd1/htOs0KbMyMG8hlMKvFeWkEm61Ipica8Rl7wcRs0CPrlceOGeYvXPx8Jaz5ErWeS8HbVD9fvt7LAZE4h0gEaBAM41HM+ksD5c6c5ZYdYnLQq/3RsWfM+8/TgIWfhH3Dak2xHH5sEpQ6mI+pl7bbzi3PCRV1yfMVUPVVjp9xeBy8Tfzzpeu9HBCJM4kEH5TCAfJAoYVRRlcScjr3v5AX9P7WQOQkh2/5bDOd+uEKgVOvOFZCV3XR/4ueL6M+TiyneWKeiHOOLlrv5YBIBCHwbLZIBOLADFcLORDKQKG/3IHKlcUZVAPGYFNX3tExjsNGmun8indsvS1h4mVWLne+7PoGmEC1yWUvuCLUWoBIBCGwogiyY0ViPHiIus8OsZ1BNUD700CNNnIqllYca2pANtO5o0/Vq9vaEgnKawmSVUbd97Tz5QjkZDpBeVifSSCHY3S9fLv1maDtqXrXB0TijCIRB3UIh+VDOTZQmGNWB/AGVUGVIQZa45hRPkUznV+Fj623dQWnvOO6Lnu+nL4328nRZXv1ttJ0vjn1rg+IxLlEYgjF9dWUD5Q8SGi5uMExvEFVkPvl/XbrGN0OTSNdiMGR9TaFh/Kq/Rc/X55ITKUTumyv3laalW+q3vUBkQhC4Nk8kciDuQwGx9Gic4Qw1nY2PagK1mCbOiaQ6xJCENomf93gg5bKOuXem0jH2qKkzs/Fz5euT+Wj+gbRaaHL5ttUPutrbGNJc9o3q971AZEIQmBFEWRzRYJCYXm/zvfpwUYDTDsmH1T5/j9bcg5dBo23u3wlbh2TiQ7I0vUgzU5YTHbjmHplPg2PQi5/vmR9ozKpz6V++mw6rm6HUUap90IrQq0FiMQZRALMoPdVtFmfjDLqs45Lo6Ob7QCRgEh0I0YhHa+kVn0yiqErPY9SLocVPW0FiEQQAs8gEuDWuXmRmGMA3DI3LRIAgGkgEgAAF4gEAMBlsyLx/v178/mBZQCA09msSDw+Ph7evPr68N39J65BJAB4GpsRCR0dkH3/8tPDD9+8MOc4kPkioWfUpam2W/0tG4BLsSmR0FHCHJsrEjTZRUxnBgBEuonEF19+dXj+/HnTKN3jkiLReyYgAFuim0iQEPz9999No3SPi4kErTxkzfEXL0bR1N10OyK0ZHg5KN+q5PzQG3BNLCYS//zXv8X2MiLRcmr1vCKIQbwVUW/xDS8HbfTtPgDm0FUkHt+9G4xEgm8vFknQgiZcEAj9ejVZUoNwDFv3oEQgOT+eaYBrpLtIfPjRi5EtKhLk1xQJ8LcBo9PbbweWdQrkegWJ+GwjiAWCCnBNdBWJt2/fDEaRBN9eVCQC0cGHZxOU1ogM4joFuxBFqOgjY4kHAFumq0i8fv16MBIJvr20SBDxnX91CyFvNxKjtQFiJFLy9lmfAIBeLCYS2vqLxOkMDywBuAG6icQ55kmcamcl3m4YP5kCcKV0E4ntU+ZC2M8iALhWIBIAABeIBADABSIBAHCBSAAAXDYrEliZCoA+bFYksDIVAH3YjEjo6IDsaStTFeRr3vb/hVyIOOsTP7mCZdmUSOgoYY65IpGnXovZk2Hf8F+3z8Z4Cvh5uXT54JbpJhLrW5nKWETmYkAkwHbpJhIkBHyRGW2U7nF2kYhRxMTLWDnSKLciVVCyU9KqVjmtvvmpV6mivHW7rktxd9jt6NXy1Ib40pjIQ3Dnb9VplY+VssD5WEwkFl+ZigTAff6QnG9wsCgY3GGLQ9ImW4/CXKWKOzuRjrdfKed59edGnSIfbVptAOA0uooEX4lq8ZWppiIJI72+/amckm/n6EMKgJO/IF43L2k8n1eGSjPbAMBpdBeJ9axMNfFM4lSRyMhVqibyi7qoXSWN5/PK0GkJrJQFzkFXkeArUS2/MlUgX72FEwWHTb9ukOOxNOHInsNW6ipVE/mpHWKxm5LG83ll6LQKVsoCT6WrSPBFZpZfmSoTnbKE+cH4cwqR1nJQgm2L24YaiQwPJqPq6OPZg0axNJ4nBHJblN9oAwCnsJhIaFtMJAAALt1E4mpWpgLgxugmEgCAbQKRAAC4QCQAAC4QCQCAC0QCAOCyWZHAylQA9GGzIoGVqQDow2ZEQkcHZE9ZmUq8ms1sNIVZTJMG4PbYlEjoKGGOtUSioqc7AwA43URifStTFSASAHh0EwkSAr7IjDZK9+gnEmm7rhql0tlLX3f7/UlperGYWhdWlALrYzGRWHxlqgFLJPizCZ6e0orzpvUa5qaxOu53uXxVF729CWUAK6OrSPCVqBZfmWpAObC3TdGAWPLuiLQgBiVCiBbFQNWV82H9B7AmuovEelamKjiiEDlCCFyRsNZ10HUlsKIUWBNdRYKvRLWKlakijihE+DZ9PvV2w4oQdF0VOh4RBVgDXUWCLzKzmpWpRo46sc1WfRo9nPTS9C2HdbuBFaXACllMJLQtJxJPoHkbEfDSANgQ3UTiGlemirM2xXOIipcGwJboJhLXgZzHIG8JvDQAtgtEAgDgApEAALhAJAAALhAJAIDLZkUCK1MB0IfNigRWpgKgD5sRCR0dkD1lZao02/GUnyn1jEwArptNiYSOEuYYRAKAp9FNJNa3MhVEAoA5dBMJEgK+yIw2Sve4rEhkx9/zF7SYCrCXs6ZXnEozL8VCMnx69ih/3IkVqcBqWUwkll+ZSotEcNDinfFtTJnWfgWcCUY4LolDKZvXQTTyU31QBrBSuooEX4lq+ZWpuAMr5+XbdOV3F5OpEUA0ITQqKmjlz/uxfgRYI91FYj0rU51LJHikwGiKRCN/ACtSgTXSVST4SlTLr0w1UyTiZ+92w4oAStnlb6GVv4IVqcDa6CoSfJGZ5Vem4g5Mn1siQZspKiCbXnFqLx5cRlFpPrik/KEFrHy8Yg7WxmIioa2/SAAA5tBNJK5xZSoAboFuIgEA2CYQCQCAC0QCAOACkQAAuEAkAAAumxUJrEwFQB82KxJYmQqAPmxGJHR0QPa0lakC55zpGGdS8lmbExybH4CF2JRI6ChhjjVFQr9sFbb3cUNP0W4xN1/h2PwArINuIrG6lakoijD/VydEAgBON5EgIeCLzGijdI+zi0R0Wv1GZto33ILkVz/jP/8V+6x8XAT0SlNT+QlrdSqsWAWWZzGRWH5lKqI6YXVA7bwcnqbzsW2KUkYe7eTP7Ri9Im6WA0BfuooEX4lq+ZWpGPn17eSP2pkD4gFnSXOcPpc3jlK8/MaDU7McAPrSXSTWszKVJK77EFVCObNwYLrilzTH6TNypakTRCIjywGgL11Fgq9EtfjKVPd75rA83FfOzB9wRmcuadMiQdSVprz8jdsNRi0HgL50FQm+yMw6VqaqDwX5vf/woDLuq88tnt3tDrshktD5mNOL25MaITTzR2R7Uha7HAB6sphIaOsvEgCAOXQTCaxMBcA26SYSAIBtApEAALhAJAAALhAJAIDD4fB/TwjtaSsmtQcAAAAASUVORK5CYII=;imageBorder=default;" vertex="1" parent="WIyWlLk6GJQsqaUBKTNV-1">
          <mxGeometry x="240" y="30" width="170" height="105" as="geometry" />
        </mxCell>
        <mxCell id="kvc4LLjoX2ohHxMDiTU2-48" value="" style="shape=image;html=1;verticalLabelPosition=bottom;verticalAlign=top;imageAspect=0;image=data:image/png,iVBORw0KGgoAAAANSUhEUgAAASMAAAHDCAYAAABvZHyvAAAAAXNSR0IArs4c6QAAAARnQU1BAACxjwv8YQUAAAAJcEhZcwAADsMAAA7DAcdvqGQAADh7SURBVHhe7Z1BcuQ4roZ9iJ6b+AZ1hrlBrusm3tUFOl7MvjZe9K5P0AdwVPQBXkRv3mJ2dj4CFFIQBFCUMiVS9v9FKKpSFJWSSPwCmQT8dP3vzysAALQGYgQA6AKIEQCgCz6VGH28vVzfn56u768fw545+ZjL9f0jPkZ4e3m+PqVjXz9er5d03ueXt6GkL46+zvfLU+o5eSs967Nylnbfg5b3PhGj//znP4tbzzxajD5eL0PDvF1fnqcN8/Hxnva9s01ezPd9vL1fn59y2VP69+VtLH+9yP55mfD2Mj2v/q7bls4jlK5zLz7Sd72n7/qMYtTiefZCy3ufiVGJUjkbkDKQXlktRs8v17ehYbQ4XFhIskhoMRLheB3Oz88lfX5zvs8r+3jN+y7qvHJOK3pCdJ178unF6ODn2Qule6f++py2vXiIGPHb3hjV399/u/7548f152+/Xf/nX/+6/v7b9+vfQ/nHr3E/bX/+8ZE696/rX99SnfR/zccf36+/f/tx/ccxZk1p6CAe0628UoyWWBIJgsUlCZeIk8YKeCRyNd+zFup0+ll9JLecvcr0JnxPrvr7y+Blpo4pz1Y/15IY2XMLs3YY3rr5u1ObpO+1ZYRuWy4z5520vWrb2fc517qGW/tQuw2n1cZJdnAhg03H5PKx3afe8tSbtmX6nKV60fd5Lzk6Vs5bOucSnq0/irvESBrHU0sSIy0iLE4kOixE365//cr79Wc65uePX+m8f1z/HMTrnx/frr9//4OPXcIzkJuRDfu0Z2QbZW3j1IhEJDj8XUGHseeVz+M1ps/O8G4tJBryLMigRQBYjHi/FahRILaIEX+Hd7x8z+U1f+Y2St/n3KNuP4LPOdTT3ARuOC5/zufc2u63thvaU84jbWENlcUinVPq3YRp+Kzred9dU6/0fXKcPs/SOWvgPq3O8ShcMfr3v/892wgtRtIQUQOK+Fg8cZFjqYzFKHlDP799m+yrwRUjMjh6u8vDN535HqghS2JU8ooIXc7/T52J9y+c95GdQbwRbdAsPOmzNuA1YhThfRcxF47puUXcZJNj9fVZrFeU6/nH1uIZsm6nUFRc8RsFILdn2je0v7BUL/o+gsrESdAvxKVz1iJ9d229Eg/xjOxDJLaIEQ/JUtk/P75f//ojeUzp/9F5PNaKkd8wj/GMagRDnp8My+x18Jb2W5dYrvsRHYFF5jltB4iRcPOchu8siZEVnEn7lcTItLtma7tvFiMyXKcdLdnA07WIcCzUK4kR3yPXzdcofaX2Wkoc6hlFROX0UOwNRiJSGqbx/799v/75nYZ3v65/fU//Tx6SHLuEK0bceXOHvZWrjn8PkRjVNlbUMUoiR3jPewujwQ7PRQ/T7hCjm9gE10/MRWVsE74uKVPtR/Cw7FZvuAbjaRH5nOVrWMtMjFg8xs+hGA31ovbUiFDSOZfqFcVo6EMv6RqzKOXj1lyLx6P6nsdDxIjQriBR8mjIA5LJ69+1MPFcUZ43ItiLUhPfEdIp82tl3KQjkiGN+6YdfwvSoOqreKMGLr11Z/WCRpWOJB1GPi/VW0M2+NHIs9Gn55MEpyRGS8+a8MTIqyflIhy3/eq6iMkENU+sj+1nzzspG+7pVhZ4SrXM2z21i7rOojjYfjG04axt06bPEdUjSt9HiKdljymdswTZuDc//ChmYrS0AfBorGfUKyJGjx6egMxEjABoAcQIEItiBG8I7A3ECBAQIwBAF0CMAABdADECAHQBxAgA0AUQoxOiF8YB8Fk4lRhJZL9E+tdAC/Cenp7H5fBvL8mQdTqQnCrhSe0T5Fgq0+cgXi+yf14m5ERV/nfdNmf18BJrFp9teWYAtKC5GNmV2xF5dTat1vZTjUQGSoLw/Jy2IZTh7eVyvVzyZ/pJ+cJCMs/dkoWDkkzlfSwsz5TnZW7QXhmLYKp/UecVMbKi5xE9F/l52RM/y9ZnBkALmopRFOdCoSRjuMg0HCTKe0R452Mxenm9vlyGhFHp/3nfNM5qSSSyhzWKk4bFSHk4kcjVilEp/oeX+Dsi9chnBkALmoiRvN29tzIZVSl/UcmwCPYo1HwKCQUZP3lEL+QV8f/Xi5EvOMNQy3hFNITLnpcvRuMwbTq8Kz0Xgso5+NF4RY9+ZgC04HAxkslXz/DHYUVsFEuGRUg0NRktCQN9V57/yZ7NWjEqeUWELuf/D6K1dF4WOKlXeC6CF+W/xzMDoAVNPSM73HiEYdm3vIiRRgsGURINLRgRdlg2ej5qc+abskCO3lH0XAQvSnuPZwZAC7qaMxKj2Trk8OY/7hGjGiEi+Hye2Cx4RvyLnFPPuw/2nMw+Yo9nBkALmooRwW/lZBCCGI6djM0ewLhfNjEwOo+da4nEQMRoMu+jNjp++rO+KbP1HEEh7PfL56V6hH0uJBrxXNLjnhkArWguRmAZLHIEXwGIEQCgCyBGAIAugBgBALoAYgQA6AKIEQCgCyBGAIAu+PJixAsPh3U/3uJEm3IE1IMlCWANpxKj/Ndn8yI+/ccfa9CiMw9QjVdKP1qMllZlR+gFk7budIHm9N5K9y3klebjeWeLM2lTK9ZrWbOo8p62BZ+D5mJkVxpH5FXGY2oM/muz3+jPYOfPUce/GVbBmLYKxBa2fFeUkoTI5xtDVlhYgpXdXlkOZWmdd2lb24LPRVMxiuKiSrl5BPoT2bbMj+kir2Ep0NU3vtIQzoaLjIZMwkHpSrK3QZtkCBAPZLr53opHjUiwuAT3y98/icnzRa5WjEpxbVvyLgm1bQs+F03EqJS3Zyk3j8BvT+c4flOreYqSpyCUjM8rE8GR7xiNWsWtDUZvxaHW0D1q6vqCMwifeQ4ktj3lXRJq2xZ8Lg4Xo3vzGRHem1Ojc/PsIkbGK9IGOxMq45kVv4uFazynzrlElOoSJa+I0OX8fxHMhfNmj26ot2PeJWJN24LPRVPPyLrxNR2W35qFzmrfnksGSqwWIzpnIHD3iNESpbpaMCJGDy6fRwvfbXPuK9/D6B1F7SfQkMpe4x5tCz4XXc0ZSSqMyJVf6qzunNFgwFsnsF0xGoY+/vFlMSJkeLSW6DprhIiIRLR0/wTPnTn13Oe9Me/SlrYFn4umYkTw2y51NCHMzaN++tVbTW4eEY/RA5Ah1SBUk7JslKUyPqcdqg3GWiNG07rT+RiP+fXnja/TXocus/VCb24qRrN7D+oRtv1INOJ2eHzbgs9DczECnwcscgT3ADECAHQBxAgA0AUQIwBAF0CMAABdADECAHQBxAgA0AVfXoxKwbCErOPxykAZ/NQP1nAqMZpGfK/LeaNFZx74Ga9AfrQYlb6rhF6IaOuWFlGW7lvIK7jH884WPdJWWMEesWax4j1tCz4HzcXIruCthcMHkM9oON+4wrsUGOyV5RCRtvmMLLVtCz4XTcUoijeqyXnDHdbEOfmxUuQ1lOO2IuMrDeFsGMZoyDkcBPmMfJF6ZNuCz0UTMSrlwynlvNF/O16/OTX8plbzFCVPQSgZn1cmgiPfMRq1igeT9BxGHGoN3aOmri84g/CZ50Bi20s+oy1tCz4Xh4vRI/IZEaW8N8hntFzO/xfBXDhv9uiGejvnMyJq2xZ8Lpp6RtaNX9Vhg2Pt23PJQInVYkTnDATuHjFaolRXC0bE6MHl82jhu23OfeV7GL2jqP0EGlLZa9yjbcHnoqs5o6WcNxp+exp33p0zGgx46wS2K0bD0Mc/vixGhAyP1hJdZ40QEZGIlu6f4Lkzp577vDfmM9LUti34XDQVI4LfdqmjCWHOG35bqv2ms9J54jmMLB6jByBDqkGoJmXZKEtlfE47VBuMtUaMpnWn8zEe8+vPG1+nvQ5dZuuF3txUjGb3HtQjbPuRaMTt8Pi2BZ+H5mIEPg9Y5AjuAWIEAOgCiBEAoAsgRgCALoAYAQC6AGIEAOgCiBEAoAsgRgpvTZBQKgPrwTIAYDmNGNkFc7w4rmI1r5DDQsorn88qRnqRoixcFKaLIqcLLM+Q6+jedgfnobkY2RW8EdIp5a+MWpY69+slGdtrMszCauIzilFeZU1CMl1FTWThGK+5FDTsleXwkba5ju5td3AemopRFG/k5bxZ6pREdD42WDY0MqSpBzD1HGgbjbdURl7F5UWXx/UmAmHKtKdWKluiRiRKQcMsRrPUI3ORqxWjUizZmlxH97Q7OBdNxKiUDyfKeWPd9Sg1Kb+NzVwEGaEYNhmd/F9it26GxmKQjbVURtjgURandGyup4TpZtTT4zxKZUvUiIQvOIP4Ga+IroWekz2vfBbBtMO7UtsSVL4m19E97Q7OxeFi9Kh8RpwNsCLnzcyYSFQGw7NR7BMxKpQRkXDk47SxTg2WBYH2OfMspbLs1YzntF7TkhiVvCJCl/P/h2tYOm++5qHeAbmOatsdnI+mnpF11dd0yo9fP64/nWPtG7IkDiXBKZURoRiZehHZ+NO1lITHKYsoiYYWjIjRg7Oej9qc+8rPZRTbqG0FGlLZa9yj3cH56GrOSFzyml9L2K2vyHljhyYE7eMhiDKkcfghb/m4jAjFyAzvSliB05TKPCIxqhEiIhLRJc+InoNXz2uLR+Q6qm13cD6aihHBb7TUmYT5HMF0IvO2vyLnTWRI2fPIBpqNNb/5L6/T+Z5SWSRGRBaSXI+3wVhHURs3OUeprMRk3sfUnV2HLrP1Am/OPsPZdQb1CNu2JBrxXNLj2h2ck+ZiBL4GWOQIloAYAQC6AGIEAOgCiBEAoAuehn9DIEYAgCOAGAEAugBiBADoAohRQ/BzNwAjpxEj+iujsvBNb6VobkEv1LMLCacLA8ewBqJYVjhnLbUL9u65dwDOQnMxsqt0a7HxTJFh25grLRxZUMyK69tq6bxC+bbyWIVnlM5pie5PYri0wNVSe+8AnImmYhTFFHl5bSwcvW1imUoxSjaswUOHidhYLQkNmYtZfM7i9azI6WNZe+8AnIEmYlTKeRPltdGUorzZE3HmYWrEiAVnCKrV/5dg0Jf0r07dEZ2zdH8Ela/J6aPZcu8AnIHDxegR+Yw8z0Dj5bVZEiPtFREiRixESpSWxGjvnD5b7h2AM9DUM7LDlBqDjPLZCFs8ozwEG4WIyOI0io8rPAueUTQXRkOqeZ397h2AM9DVnFFNXpvSUGbLnJEnRMQ4ST1cm/GciJLAEd713JPTZ+u9A3AGmooRwW/zZEhClNeGywqeAZ0n/jVNfp4fNxKQUr4frhv8tF86p8XeH4lGPJf02HsH4Ew0F6OvBBY5AhADMQIAdAHECADQBRAjAEAXQIwAAF0AMQIAdAHECADQBRAjcBdYrgAexanEyOb1Ka1W1swWN6pYM7tQkVdap3J/YWNegZ1XbduyHDqytJCSY90mZfmc8++b5k+i79RxcRYbvkKUQlqkbNzmq9BrWLPgcmv7ga9BczGyK5QjcuyWWpFsYrnCFdgsDlPDFmzgKyFiJGSR8A21VCbY83kCSORzjdfJgmdSmJTE6PWS6r6me1V1+LufU71bjiYjRrMUKf69RG0kMXjes7VsbT/wdWgqRlE8lZfTR0Ilfv74xcfQW7bmb66XxMgz8EeKkVdeK0b5use6JTHiuiwsJDbqHIPgvKa6LEAFMZIy+x2lmLc1OZm2th/4OjQRo1K+n6WcPtLRo2P4LW7mMPJbPw1FlPERYuBaNMhItUGWBKdURnjCMxumDddkxYiPU6JYFCN1zfq4m+CQsPHQMxYjgr7zVrfQRgSVb8nJtKX9wNfgcDHams/IRrVzpzdvViHK6WNFiQ2SjDT9e7mkLV2TNfqtYiTntpQ9o7lICZEYaYHhzyQ8+v6G//MwTqXJLYnRHjmZHtF+4HPT1DOyLn6xM3PUup1z+G2WlH7pzSpGfzPIJBhvL5fU8dN+/v/9YpQFwq9TFqPsGckkuL6OUIyGY28ixttwHiU4+V5fQjGaiVrQRgINqex9HNF+4PPS1ZyRfXtqbAoNL6VGzZyDnkPKBklekXgPSZSS0Wsj2yJGkXAQNWJE0Dn0hHJ0Tj7OeGBy7ESMWGzS/kCM6Lq8CWzvmW7JyfSo9gOfl6ZiRPCbMHVCQTq0nQAlKOWq7KdNv1XpPO6vaWR0xnO4vf2NB5IFYDBWFodpPWusnhj5nsr4ndno9ZbrWzGS77fXprfL69SbEfI9p/MawZFncRMjfT51nMW2EYlGPJf02PYDX4fmYgTOBRY5gr2AGAEAugBiBADoAogRAKALIEYAgC6AGAEAugBiBADoAohRp+AndPDVOJUY5VW7Q6ClWb0rAZheWYnpIkS96DAvKJwsDFQrnaN6xHTh47SsljWLAPd4LgAcTXMxsqt7I/LK3ulq3ijQ0pbVGjavcp6ET8xXN3tM6+WV01IvC9M8zIKI7l3iwmpE7IjnAsARNBWjKBZp+jYfDU3D+XCCMjY6Ex9VE/fEojJ4P6vFSOqZEAwJ47DnKV3PmjxBlj2eCwBH0ESMSrlyOLWEE2hpsYYlUeBsqIFnwJ6ImYeZxKDpOK7ZMM0MxYJ6Wph4KJfKXtK/EmNWuneCyrfkCRIe9VwAOJrDxWhrPiNN6e1PlMpLuXJuAaauwZKH45fpeiJGLERKlDiKfoc8QZq9ngsAR9DUM7JDkRqj4zd/weCI6DxLHoCNnNfo1CMWXU+i4UdPaDrci+5doGGTFavWzwWAI+hqzqiUD4eoMTiCPQAzJKmZG7HzPRoZcnllup4VtMjb8q5nS54gYu/nAsARNBUjgt/KySCEKB+O/vlab5QTJ7/xVR1jcPQd3hzNZN7HzP3M5owmZXE9ovanfXvvJAzxXNJxzwWAFjQXI5DBIkfw1YEYAQC6AGIEAOgCiBEAoAsgRgCALoAYAQC6AGIEAOgCiNEDwM/yANzPqcSolLdHoNXIsuivBgnfuG1DPNka1iwe3OMeAPgMNBcjuwo5oiZvTw53+H7989v0b7iXV2CPoRo2lEMTXafEmkWrrDV73AMAn4WmYhTFRW3J2zMGgeawCetVuLFgQ8jHLag1iE0rxW89MvfQlnsA4LPQRIxKOX225u2hej9//Bq8j7khE+zdOHM7txSyZohWuk6Cyh+Ze+ieewDg7BwuRnvkM+LPg1GXDJnQeXtuwbAmGRp5HkfnHtp6DwB8Fpp6RnZ4U2PI7E1MhjbZcGVIpDcvSl17FTY/tUTjH5176J57AOCz0NWckRhlNMSxRuwReRXunJFJmBYlUPPrJs/J7COOvgcAPgtNxYjgN30yMsF6CWK4pbw9Gs+Q6TuieR9JmC9bNCyz10nCEM8lHXsPAHwGmovRGcEiRwAeD8QIANAFECMAQBdAjAAAXQAxAgB0AcQIANAFECMAQBdAjDoFywfAV+NUYrSUC4jiu2QhoQ2jWEIWP87CO3S+I/2HHCd5kKZ/Mbb2jziWWLPIcc/nAsBRNBcju7I5Iq9KHsMoOKxCGZb9rFky7Jw65HK9qL+JT7BAOSlFZjFtKvXILL7NHKuJ7l1i4mpEbM/nAsCRNBWjKNZqbS6gmuDU6LvGhGo5gv8mIoVEayw+Kt2IPlYLExF5XKU4s0flSLrnuQBwNE3EqJQnaEsuIB6mpLf/32mfGCvlBbKwJ2LmYShtCCVXk3QiE48micqril2bJGFT3k4WnCxG/H+TkuRl+A6idO8ElT8qR9I9zwWAozlcjHbJZzTMmYihlc4zyWekPBxXjLQAGU9JPJ4sUi+3MhEjFiIlSix4R+dI2vhcAGhBU8/IDkVqjI7f/GaIIh6AnhchT8JGw2sP4JZYbRCUyUbDrMEz0qJAouKKqJoXyl6TFjE7/PPvXaBhk/2OI58LAK3oas5IUmeszQVkU25kj2BqvEtzI3PR8Dyl+RySHBd5UHZIJ3jX8+gcSY94LgAcRVMxIvitnAxCEAOSOQ4xMhlyyH7ZpoY2luu3P33H0q9GVnwIGaqJx2SFyu4XpvXmAibYeydhiOeS2jwXAI6iuRiBDBY5gq8OxAgA0AUQIwBAF0CMAABdADECAHQBxAgA0AUQIwBAF0CMOgU/9YOvxqnESC/g03l7dL4evekFfhF6AeOaxYtby2pZsyBxj+cCwNE0FyO7Cjkir0AeQx44BCLI02NjuSLDjtKHELlMrbpmgRnizzaWWaJ7l/i1GhHb47kA0IKmYhTFRa3N22NhgzRxXKUYLDcUpJCXaGuZpng9D8pnZFn7XAA4kiZiVMrpsyVvj6YU4c6eiDMP44mRpAIhbF6irWVE6d4JKn9UPiPNlucCwJEcLkZ75DPSRMYoeHl7SmLEgmLyEm0tOzqfkWbLcwHgSJp6RnYoUmN0bFTREIUncuP6azyjUl6irWX5s3/vAg2brFi1ei4AHElXc0aSJiN6g5cMjigNZVbPGRXyEm0t03jX8+h8RsLW5wLAkTQVI4LfyskghPvy9vhvf/qO+Ne0NJwy282L2fjzfalMY++dhCGeSzruuQDQguZiBDJY5Ai+OhAjAEAXQIwAAF0AMQIAdAHECADQBRAjAEAXQIwAAF0AMdoZ/GQPQB2nEiO9wE/n7SFs7p5SHJaF48jMIkVeOa2i771V2jWsWVi41/0BcAaai5FdhRxRytuTY7fGMhvLFa/AzgIjAa2aNWIU3YPEoUUrsDV73B8AZ6KpGEVxUWvz9kioxM8fv8Yyk2DMjwWLE5/VilEptutReYm23h8AZ6KJGJVy+tyTt0eMPKrPHoyav+F0H0pwNDnAVQ/f8naLWyvcA0Hlj85LtPb+ADgTh4vRHvmMxHMQI2WDj1Kvqrw9i2IUeEZH5yXaen8AnImmnpEdwtQYq5cuI0/8auOl8/w2SzxvPYfs/WwbpkX3INCwyYrV0fcHwJnoas7IegAWz1AJmybDfibcOaMHTGC7531wXqKt9wfAmWgqRgS/zZMhCWKwdoI3G+C4XzbxDsiQvf0EfUc8t2NzGq3/ad/eAwlD/H3H3h8AZ6G5GH02sMgRgG1AjAAAXQAxAgB0AcQIANAFT9f//hz+6wMxAgAcAcQIANAFECMAQBdAjAAAXQAxAgB0AcQIANAFECMAQBdAjAAAXQAxAgB0AcQIANAFECMAQBdAjAAAXQAxAgB0AcQIANAFECMAQBdAjAAAXQAxAgB0AcQIANAFECMAQBdAjDZQ+htqwsfby/VZ/W1+AEAZiNEGIEYAPB6I0QZqxAgAsA6IUQHxbuRPXz+/vOX9RozeXp65XD6/XsY6WrDyn9K+XF+G4/U5AfjqQIwKkKh43o8WIxYe9Tf5Bc97uv1d/8tr/sxil/+2PwBfHYhRAfF4RDwEERqvTIjF6HL7O/zeMQB8VSBGFXy8XibCM4pI9nSWvCcBYgRAzOnESITBFYCNZTXkIVUWEi0i0a9mVWLE1zR+XqLVvQNwBKcTIztZrNla5iFiQnVkk7pWaMTYaTLaqyd1b3NGt23dfNFR9w5ACzBMOxDrGQEARiBGBwIxAiAGYnQgECMAYiBGAIAugBgBALoAYgQA6AKIEQCgCyBGAIAugBgBALoAYgQA6AKIEQCgCyBGAIAugBgBALoAYgQA6AKIEQCgCyBGAIAugBgBALoAYgQA6AKIEQCgCyBGAIAugBgBALoAYgQA6AKIEQCgCyBGJ+Tj7f36/PSOxP7gU3EqMfr4+HX969tv1//517+uf/4xNcS/v+f9tP3+27frX7/G8o8/vt/KuPz7H0NJjP7DjPxZ/xVZKnt+ub4NYmD/qCP90USpZymV1fL2ksQobTUc+cwAuIfmYkSG9XRZNqyPjz+uf7LBZOOyhqX558e36+/fflz/SWKR632//n0TDjmPCIdv2FlwknAMonO0GEXP5ePj/XpJXlHNX6I9+pkBcA9Nxeg1GdvT8/vNqIXpG3s0CkLe9IuGNbzJ5fifP37lz+mNL0YneNchgvOaxIMF6EAxip4L8fHqi1QPzwyAe2giRvJ2996uZFSlIUFkWPntnQ3SGg4hxhqdmz0RNQ9zE5y3l+vz5TWdf38xKj0XgspfkgBYr6iXZwbAPRwuRjL5KoarscMBj5q3PL/JB+9AjheDYsN1DI9gryNdGxm7FpzXy3Pat68YlZ6LwNdnPbiOnhkA99DUM7LDjYcZljrPx68f15+z+Y95/dAzIuOk/19eDvOMojk0GhpZserpmQFwD13NGdk3skf1W354k2fDGo3VfiZKc0YsRiw2SUREjGjo9kTe0nBO/jz+Df2tYiS410Oek9lH9PTMALiHpmJE8Ns1dWxBDIfmKni+4jZ0yG9n2S8bGZgts0MKmpy1dQT6/vjXNOX90OenqfdDn/M2ChMxLcubX29aprHPhYw/nkvq45kBcA/NxQgsg0WO4CsAMQIAdAHECADQBRAjAEAXPA3/hkCMAABHADECAHQBxAgA0AUQox3Ia4loEeTr9fI0piFZYmu9M4LlCsByKjHSi/v0IjxaPawX6Mkmx+hyG9G+B3mBJIlKDhPRoiJGmLQmbdOYrlK9Eq8XvYhyugAzrw4/rqyWNQsnz9Lu4D6ai5FdaRyRVwxTSEJFaMPtWAltUHFWKuxhL8bV29OYNYm6H8NGpiEVUT2i1njZu7qFsWQP6/b9KmxljzJL1LYSg1cjYnu1+xoxBMfQVIyi+CZJXeG90WrirCa5eagTqrgt3WFLvCejfn95ub4nw3tPxv2evI/kBlzflUDci0S8e4bsURMPxmJ0eeX/j+KWj5dQFBKSPco0pWs9JCdTRbsjvq4vmoiRvBm9NxOnq7gj6NN2Ou6UqmNzh60Vo/TGf0+eAAtSGjJlgXpL3oAeao2bNcglar1CDdcxAibeCg+brFAMwsRDuVT2kv6l4d8eZUSpbQnxDq1X1KrdvecJ2nC4GIkhe4Zb47UsdUr9dhRon7xxf/74Ue8ZJaMjQ39/Sv9PxiNi9AjWekWaUg4h9lyGYZMIB4uGEhAtKo8sK7WtwNduvJHW7V56nuA4DhcjQt6e1iu4t1N6qS4sdi4hoiRG93pG97yNl+pmLylPKmdh0l7LOBe1R1n+7LetQEMj+5xatjs8o35oIkaCHbNLh9vqrte6+pLbucRentE9nb9mjoPFYhiqaWG6lU0moh9bpvGulUXcuf5W7Y45o75oKkYEG2fqFIJ0HHGvZdyf357jftmkc0ZvR3s+rzN77CFG93hU9Jy8eZgsDmnIJNsgRELpZ/g9yjS2bcn447mkY9s9ep6gHc3FCHwNRIi3eITgawAxAgB0AcQIANAFECMAQBdAjAAAXQAxAgB0AcQIANAFEKMd4JAJXgiY1wDJauUlttZ7BPjpHbTmVGKkF7LpRWwUFCmL2/R2Wxinym00+B6Mq5JzqMQYOpGDRJPOjJte8BnUqyWL2TyCvoY1iwDP0g7gXDQXI7tKN2KMX8qGYFfUanSsk41J4mjuxvmMIrGI6hFLYpHrXq4XU08TPWuJJ4tWUmv2agesiAZNxSiKDTo6r41HDv14bD6jJTFaInpeY7zYXMSEUhwW8guBHmgiRvIm9t6ErfLaWFiM0pDpkfmM5sO0Om9Ew96Nmdu5pfBwPKrSsybkmux1tGoH7/7A1yCZRJlHi5EYsme4NV7LkhHot7FA++QN30s+I2Kr4en8Ozw8G/IKzdJ5FJ61gPxCoBcOFyNC3tZ2aHCvEUQR3Bo7dxFREqOtnpFFzrPG6LSAifjk6Hmz3dKI+M9aoKGRve6W7QDP6OvSRIwEO0cgHXzr8GBrXhuPIzyjtXMkS8d7wzTBq8ti6JyvVTusfR7gc9FUjAh+E6ZOKEhHFXde5hny23rcL5sYQ/Q2tufzjMdjDzGazRmtMDx6Tku/NpXEiLDPmow/nks6th1q7g98bpqLEWiDDBExHAK9ADECAHQBxAgA0AUQIwBAF0CMAABdADECAHQBxAgA0AUQox1APiMA1nMqMdIL5/SiOQrClMV0erstxFPlNvp8D6K8RDnmKj10s8kixaheiVxHfcfCwseINYsOz9IO4FwkUyiztxjZVcERY7xUNgS7glejY6tsDBRHjzfKZ2SRuDGJTSvVi8Qi13m+Pt9i0eLvjJ61vY4Se7UDVmCDpmIUxSIdnUfHI4d+PDafkaVWiAU3vmwQsNd0vSRAkRiV4r6Qzwj0QBMxkjex9yZslUfHwmL04HxGmjXeiIYFLNWTuZ2bN0V//55j6aZiVHrWBJUjnxHogcPFSAzZM9war2XJCPTbWKB98obvJZ/RWq9IM8tnNAzRXi/TbI+lZy0gnxHohcPFiJC3tTXGe40gihjX2LmLiJIY3esZSf0txhZ6Rukz///y4npGkfDR0Mhed8t2gGf0dWkiRoKdI5AOvnV4sDWPjseenhHfdyAOJbw5lYkY8RCNJrPr5oxYFM0+olU7eNcIvg5NxYiwwxXpqOLOyzxDfluP+2UTY4jexvZ8nvF47CVGW70iek7xr2lZjG6fk5vmeWn2WZPxx3NJx7ZDdH/g69BcjEAbRBQxHAK9ADECAHQBxAgA0AUQIwBAF0CMAABdADECAHQBxAgA0AUQox1APiMA1nMqMdIL5/SiOQrClMV0erstxFPlNvp8D/LCQz8v0SynkV7wWagXIYsckc8InJ3mYmRXBUeM8VLZEOwKXo2OrbIxUBw93iifkcSJ3eLKhs+yGjuqR5RXYCOfETg/TcUoikU6Oo+ORw79eGw+IzJ6StchRudFzJcoxaYhnxE4O03ESN7E3puwVR4dC4vRTvmM2OiojiMAS7B3o70r8aaQzwicnGQSZR4tRmLInuHWeC1LRqDfxgLtkzd8y3xGYvgiQls9AZ3vZxzaIZ8RODeHixEhb2vrGdxrBFHEuMbOXUSUxGirZ2R/sZLnsFRPE3pG6TP/H/mMwElpIkaC9Qykg28dHmzNo+Oxi2c0iNFtwtp8XsLzpCZixEM05DMC56SpGBH8JkydUJCOKu68zDPkt/W4XzYxhuhtbM/nGY/HHmJE5Dd/vTclUL3417QsRrfP6cTeee2zJuOP55KObYfo/sDXobkYgTbYISMArYEYAQC6AGIEAOgCiBEAoAuerv/9OfzXB2IEADgCiBEAoAsgRgCALoAY7Qx+QgegjlOJkV44ZxfNUSCmLKijTa8Azgvxcr2aIFnh9fLECwjzRnFf6wVlzWK+o+8PgJ5oLkZ2VXDEGC+VDVYbay4b45x0bFU28LGMAzg35NHhLIxqpbMmugeJC6sRsdb3B0BrmopRFIu0No+O7JNYJ05XESRQs6ksiJqYKBajy+vwaaRU91F5go64PwBa00SMxGPw3tj35NERIy/V91JbEOzdmLkdikujXNQ8TDNeUekeCCp/dJ6gR98fAD1xuBjJhK4XyKmHHxElz0GMkA3e8Rw8r0FTyqOTA1ApP3UaGhXuQXhknqAj7g+A1jT1jOwQZrOxmtw4+TzTY9hjKBjqkueQvaRxEju6B4GGRlaser4/AFrT1ZyR9QA8YmMdjdx+XjLUmjkVm6pD8Oo+Ok/QEfcHQGuaihHBb+xkLIIYo53gFW9A9ssmRksG6e3PhhvXo+/35n0m80XOnJHG3gMZfzyX1Mf9AdAbzcXos4FFjgBsA2IEAOgCiBEAoAsgRgCALoAYAQC6AGIEAOgCiBEAoAsgRgB0xFdeGnIqMdILBmVRn0BxWXrRn17lLAGmvH8hHEPIf51VLXqkbYjalz+UaDcJ//h4e0kdSvbrEJL4nCVmf6hxOI//fdNzTnMy0TbE19lFnSZfk77WUgyeZn5O2vL3lSjVk2f9PPzxTHvvhD2GWHpmJezz1HWi50mU2qGWNYtUj7SHI2guRnb1csQY1+WES3DZGA4xHjt/yBw6UZHvZ1XnVXFrYlhSL3dQEYD6c2pKhpXPHyd+I+Pxvk9fM6HzNY1lG6+X6y+LkMWrl++d/mS3XNv8ml4v6Vpf03PQz2ijGPntNz6n8HkutIMm6vMS71hzjqPt4QiailEUMzVV7mnMlRu7NeyryffDD9/EhrnxZSuEQ+c6skbAZUPn7lmMtGgKm6/34WL0cn1Nz9F7hlyHnw3tV/ezUYy8vFX0DMXruleMSnGCLfJf1drDETQRo1IuIE6PsTKQVJBGs/Xzm2EoCxqF31ZqrC6dd3TH/Y5mjVp3Zuq4ZBAvQ2euPadlybBE8PQxAl/D7fvGY+x183HGCGsN2LKHGL2Rsafrs9dE5SIU9Bxuw7mNYqSFR5i1qfM8iVI7lPo8QeVH5b/aYg9HcLgYtcxnRJRy/pTy/eSONjcw3VEJ+ayN2+vgRHROS61hecZA3+0/azL8waBCA+pIjNI+Ho6poeNMmEiwhmP3FKOlc9h26DX/FbHVHvagqWdkXdLND58j1+0Y2X9bRN+x9Cbw3HB3HxlB6oi3N3TBCGpd+zWGJSIjZWUxyt+dr2NuhL2JEf//kjzN4Zrkum+CyttwTxvFSAuPoAWqRowI2w5RnxdoaGTP27M97EFXc0ZW0T3ihz8+UPtZ442fa8bI1Al15yZ4n+m42sj5M4uTb5jeOT2saOXP/jntsZHx2Ov0vLTuxIivhyaz8zV5wkH7SDjWPDONX2/5eVpsPcHra0fnv9JstYc9aCpGBCtwunlBHi6NZ3lMOyi8qLvsl00aIcz3Y+rZB0/fX/o17fbGNaIRdTYil0ld1bEXzlni5vrbc7LYqXOmTRsLC96kPBvkTDT5c/YA5P/TestG6NerEIBCvZmHM9zv5dUXSi3+0TNbYvpMp/VCcV9oB43t82T88VxSH/ZwBM3FCICvDPJfjUCMAABdADHqgGhYlLf64cXebL3Onu7vLM/6KwIxAgB0AcQIANAFECMAQBdAjAAAXQAxAruBn63BGk4lRnoBmF5xStBKUlnIxYu5nFWrshDM1o2IFi8Sm8vUwsfZgr2t9YIybyGePmZrvVrWLKA7um1BfzQXI7saNWKMoXGWv3OZjcWZLn/Py96/X/80dcsrsMfVw7ya9xaWkH8evhk1i4isbF6qRyKTRWAiAMVzLtXzyyzjseVzWnQ9S9R+Eovl1bEc3bagT5qKURQDI6kP+C2oOiLhxuIM+6L8LaXOTtTE4ugwA/6/ClGQsAPPoHU9QTySiahUnNOrJ5TKBD7nLJZuWz2i9NyOys3ziLYFfdBEjEq5XTjdwcrAQEE6uq1P+6kzl+ryG74wv6ENUv9fgl0lZ5GlVgBqznmPGEXezZZ6pfYjqPyo3DyPaFvQB4eL0dH5jPhNOuwvdVgiyt9ivRsRDhYNJSBWjDyviCiJUemc94iRJ4rE2no95eZ5RNuCfmjqGVk3fnOHDfO35GNlWKA3L1rZe3uyMdphFovMKBShuDhCRHjH15yzJBzFMp5/8ud8ttSL2k+goZE9X49tC/qiqzkj+xb0iDvs2NGj/C3R2zOaV4gExQ5dXM8pECLCF5ryOYmtYqS9LcvWeoT33Frl5lnbtqA/mooRwW+t1GEE6VS3t9zwVpQ3on4D0iadL8rfovE6LH2/+2va5Gf2cROjnZYrESnUy4Ljl83rqnMW6tWd0/NuttWz2PYj44/nkvpoW9AnzcUIfB6wyBHcA8QIANAFECMAQBdAjAAAXQAxAgB0AcQIANAFECMAQBdAjHZgXPSY1/LYMJGIrfXAfWBJQh+cSoz0ojm78I3ilPTCOG+l71E5b8bV03l18yS+bOj4SWvSNo2VKtUrES2WJDaXDdegF0IKm+sFZRIKY7fbAsyN9WpZszjyLH3wjDQXI7uCN2KMbZqvtM1lNn5pGjKQU0/Mc97sARsJpwPJRjQaVY5mH8NGpqEKUT0iMphsqGPYCHtXQyoSWWV9+34WkXzscj0Smfl1lM+5VM8vs4zHls9p0fUsUT+TODuvjmWvPrhGDD8zTcUoihuSdBH8dlENTHjL/mXf1pw3Hu/JON9fXq7vyfDek5G+X9iVub4XjGEtEkkugrBETZzV6F0lQ76JWz4+DwN9g9b1BPFIJqJScU6vnlAqE/icJiZuaz2i9NyQd6kfmoiRvI28twGniFgZTClIB7L1af9SzhsLi1Eyzvf0tmVBSkOmLFBvyRvQQ61xKxmKR61XqOE6BQHTBqn/z0GvSUSQd2lEPFX7Xa364FLbfnYOFyMxZL+jzl1bi9eYsk86AHemDTlvNCw8yeiok7+nTv6eOqyI0SNY6xVpotw81rsR4dDR9/R/K0aeV0SUxKh0znvEyBNFYm29Uj8T+Dkab6R1H4za9ivQ1DOyXsHmjvCAnDeWkhjd6xnd8waM6rIx2mEWi8woFKG4OEJEeMfXnLMkHMUynn/y53y21Iv6mUBDI3u+ln0QnlFHc0b27eIRd4SxA63NeeOxl2d0T4eL5hUiQbFDF9dzCoSI8IWmfE5iqxhpb8uytR7hPTd+oTjPslUfxJxRYzEi2DhTQwjSWLe3x/C2kTeNfrPQJo26NedNxB5idI9HRc/J/TVt8jP7uMk5p+VKRAr1suD4ZfO66pyFenXn9LybbfUstp+R8cdzScf2wahtvxrNxQiAo5GXwhbvFOwHxAgA0AUQIwBAF0CMAABdADECAHQBxAgA0AUQIwBAF0CMwKcBP9mfm1OJkV6MZheUUfyPXnBmY4G8shKy4ney2G5Y5SshEXZbWhQoTOqrCPgIPl4dZ1cjzxYwqtXIvDpZlw2rpeeLCafXuXQPEfZa5BqJ6FqI0j3Usmbx4JF9CdTRXIzsytiIMWZovoI1l9m4oLwU31vxqglXNhfCDyzZsLPBipFPhcKEYFQIkKYkRvn8sViQAHj3oK+Z0NeVz7/+mv17H78jvJaFe9BE/UXi0GrOcXRfAnU0FaMoHkfSMPCbR3UMwusQss/LJbPUgQg3dmmFGLGxaq9JGW6O/xqEwwhALUeIkRVNTfbk/DKNfg4Cfb8E1d4rRqX4rSPyEm3tS6COJmJUyjPDqRdWBikK0vF0fTl+7JDz4EWC37hqvkEMfhxS+MbiehiDQZLxkYhIvh82uvT5dRAo2nTqjYilYZoInue98DXc7mE8xl43HxcMjTyR8dDCI8yeh3MtROkeSv2FoPIj8hJt7UugjsPFSCYZ/bf16BJHeB1I9knH4U4YpAihYEb7hhRKuWSyscy9A2uo8lkbtxhp9gBGg631lJbESPAMmr479owGUQhEgKj1iogaMfKuRWPvodRfhKPyElm29iXg09Qzsm715g4U5pJxOkmQ2mHpbeYNJdx9bLxacMyQyhh9jYHWihEhIiNlZTHK125FUsjCUCdEhBYeQQtUzb0S9h6i/iLQ0Miet+e+BHy6mjOybyWPuAONnSLqJIT3pqsZ55MhWe+B9xnjs96O9iysiHhi5mGPy599kbDH1ogRYYVnrRAR/nUuX4vF1hO8dmLPyWm7nvsS8GkqRgS/RVIDCtJBxnF5fkvJG0r2yyYdKcolMzuf6Tz0/aVf06JhTGQwRC6TutNjpmV1xknchi/mnOKJ6U2fkwVzUi7CaERz8EbIi7HXKFuVkEyuZ3rvoTAu3IPG9hcy/nguqY++BOpoLkYAbAWLHD8XECMAQBdAjDpAhkh2qJI3fyjYgrNcJzgnECMAQBc8Df+GQIwAAEcAMQIAdAHECADQBRAjcBf4eR08ilOJkV50plfNElEOGkGXR7FGHtNFg/SLUV4M6YZO3OKpahc9mjK10NIu+psuDJyujN6jrJY1C/1atB84D83FyK6ojRhjjXKH1p05l9l4onEJPwc0Bh14cQW2CfcgsqCMQqI/y8/fIia5TK96LpWNYqfFSB/Hn0lEJsL32DJL1EYSM1bzk/7R7QfOR1MxiuJ4JH0DvwVVJyXk7TrtzHmfn4Nm2rE9/JinqbFadFAoeU+3wFhj1BLGQeJSKhO8IFiup0RxFK7hnA8u05RirY7JIbSt/cD5aCJGpfw0HHy4MrhRECPQ9TnQMXXsv1W8kXR6Db/91dyHHnZ5ZONNovEyFS0rUnQOyWdUKhNCMbLfoUXlwWVEqY0IKj8kh9DG9gPn43AxOjqfUY66Vm/dwnfoHDRsnAUxIrJBT4WD6yXBYbFRwqPFyCsTPDEislikeml7TgKovZhHl/WUQ2hr+4Hz0dQzsi7+5s7MHdbOOeRj5M2q5xuos9s3s32zWs/BI3tH02NEoG7DNiUupTIhEiNNaQj5qLKojQQaGtlr7Kn9wPnoas7IviE94s48GoH+bI+3xxLunNEgCuLBeLhiZOZetKiVyoQlMZJy7U0Je5S5z+bAHEJb2w+cj6ZiRPAbLXUmQTqfzA/cm4OGyB14rKvL6PvjeZE8LyRDmflP8XMxIrKXEdQJyubflTf2qAax0PuEPcosto3I+ONn1k/7gXPRXIzAucAiR7AXECMAQBdAjAAAXQAxAgB0AcQIANAFECMAQBdAjAAAXQAxagh+Jgdg5FRipBfU6YVvRJQPx+6Xzdb30AsD7aJACe24bYWV2hFrFuwdfe8AHE1zMbKreyPGuKdpeACRy2xs0zRkQLBlkSCMoRtZkKarl6crr8dj598X3Z/Efnl1LEffOwAtaCpGUUyRpJKg7d58OBZO1GVip0qxTeIdeaEUt4BX8pKcCP/ieQ/IBWRZe+8AHEkTMSrlyuH0ESsDLQUx5Kh+yWtgD8aZv/HESOBUIM4QrXR/BJUfkQtIs+XeATiSw8Xo6HxGGs8z0Hj5cEqekc5JJJ5RT7mANFvuHYAjaeoZ2WHKZoPkqG47b+IdE597jWc0z/2TI+7lmOj+BBoaWbHq8d4BOJKu5ozsW94jNsjR2DzjKw2BVs8ZsRip9B/ms+Cd98hcQMLWewfgSJqKEcFv5WQQghicncSVN77sl00Mczkfju8Z0PfHv6YNc0JqE1HSKVv1fou9PzL+eC6pj3sHoAXNxegrgUWOAMRAjAAAXQAxAgB0AcQIANAFq8Xof//3/0610eSytx8bNmx9bRAjbNiwdbFtFqOzQGIEAOifQ8So5U/aECMAzsEhYtRycR3ECIBz8DAxsiuNBYnT2jsAMxI8iBEA5+AhYlSM7XLy9lCs1J8/KExhSHuhAz05fGEMfaDQBi8mi7C5e7zrgBgBcA7uEqO78vYoEWFxItEpBH3SMZRALMdpZfHy0mKwh6bmpyBGAJyDzWK0NW8PIeJj8cRFjqUyFqPkDf389m2yz6Jz80CMADgHD/GM1uTtIbaIEQ/JUtk/P75f//ojeUzp/9554BkBcE7uEiPBm6uJ8vYQkRiVhmn8/2/fr39+p+Hdr+tf39P/k4ekU2NgzgiA8/IQMSLsr2kkDNFcUiRGBHlAMnn9uxamIaePDMvYi1IT3/g1DYBz8zAx0vSUtwdiBMA52EWMegJiBMA52CxGZ9lIjLz92LBh62urEiO9eSfBhg0btns3jGEAAF0AMQIAdAHECADQAdfr/wNIDAWbtW2ZWAAAAABJRU5ErkJggg==;clipPath=inset(0% 0% 67.67% 1.55%);aspect=fixed;imageBorder=default;" vertex="1" parent="WIyWlLk6GJQsqaUBKTNV-1">
          <mxGeometry x="330" y="90" width="216.6" height="110" as="geometry" />
        </mxCell>
        <mxCell id="kvc4LLjoX2ohHxMDiTU2-50" value="" style="shape=image;html=1;verticalLabelPosition=bottom;verticalAlign=top;imageAspect=0;image=data:image/jpeg,/9j/4AAQSkZJRgABAQAAAQABAAD/2wBDAAMCAgMCAgMDAwMEAwMEBQgFBQQEBQoHBwYIDAoMDAsKCwsNDhIQDQ4RDgsLEBYQERMUFRUVDA8XGBYUGBIUFRT/2wBDAQMEBAUEBQkFBQkUDQsNFBQUFBQUFBQUFBQUFBQUFBQUFBQUFBQUFBQUFBQUFBQUFBQUFBQUFBQUFBQUFBQUFBT/wAARCAEnAtQDASIAAhEBAxEB/8QAHgABAAICAwEBAQAAAAAAAAAAAAcICQoCBQYDAQT/xABfEAABAwIDBAQGCgwHDgUFAAAAAQIDBAUGBxEIEiExCRNBURQiYXF0gRU2OEKRobGytNEWGTI3UlVicnaSlLMYIzRWc3XTF0NUV2aChZOVpLXB0uMkM1OipURFRqPC/8QAHAEBAAIDAQEBAAAAAAAAAAAAAAUHAwQGAQII/8QAPBEBAAIBAgMEBgkCBAcAAAAAAAECAwQRBSExElFhkRNBcYGh0QYUFSIjMrHB8BZSNENT4SQ1QnKi0vH/2gAMAwEAAhEDEQA/AMqYAAAAAAAAAAAAAAAAAAAAAAAAAAAAAAAAAAAAAAAAAAAAAAAAAAAAAAAAAAAAAAAAAAAAAAAAAAAAAAAAAAAAAAAAAAAAAAAAAAAAAAAAAAAAAAAAAAAAAAAAAAAAAAAAAAAAAAAAAAAAAAAAAAAAAAAAAAAAAAAAAAAAAAAAAAAAAAAAAAAAAAAAAAAAAAAAAAAAAAAAAAAAAAAAAAAAAAAAAAAAAAAAAAAAAAAAAAAAAAAAAAAAAAAAAAAAAAAAAAAAAAAAAAAAAAAAAAAAAAAAAAAAAAAAAAAAAAAAAAAAAAAAAAAAAAAAAAAAAAAAAAAAAAAAAAAAAAAAAAAAAAAAAAAAAAAAAAAAAAAAAAAAAAAAAAAAAAAAAAAAAAAAAAAAAAAAAAAAAAAAAAAAAAAAAAAAAAAAAAAAAAAAAAAAAAAAAAAAAAAAAAAAAAAAAAAAAAAAAAAAAAAAAAAAAAAAAAAAAAAAAAAAAAAAAAAAAAAAAAAAAAAAAAAAAAAAAAAAAAAAAAAAAAAAAAAAAAAAAAAAAAAAAAAAAAAAAAAAAAAAAAAAAAAAAAAAAAAAAAAAAAAAAAAAAAAAAAAAAAAAAAAAAAAAAAAAAAAAAAAAAfGsVW0c6oqoqRu0VPMfY+Fb/I5/6N3yHzb8svJ6Ki/ZVe/xxX/tT/rH2VXv8cV/7U/6zqgfmb6xm/vnzlxHbt3u1TFd7aqKl5uCKnFFSqfw+M9lhHO292OojjucrrtQa6OSTTrmp3td2r+dr6iOD9NrTcR1mlyRkw5Zifby98dJZKZsmOd62XJs92pb7baevopUmpp277Hp8i9yovBU70Otx5PJTYLvcsUj4pWUkjmvYujmrurxRSLtnjEEq1VxssjldD1fhUSL71UVGu08+rfgJNzE9ot+9Dl+apeGl1/2jwudRttM1nfwmInf5w6amb02nnJ4Sq8uK72v/wB4r/2p/wBZxXFl7/HFf+1P+s6pVOKqVFjtl/unzlxNst+928eML7DIj471cGPReCpVP4fGSHgXPivoKqKkxA7w2icqN8KRuksXlXT7pPj8/IiQ4qupP6PVanT3i9Lz+3vfOPWZsFu1Sy7dPURVcEc8MjZYZGo9j2LqjmqmqKikeZ83CqtuCI5aSpmpZfDI278L1Y7Tddw1Q/h2esQy3PC9VbZnK91ulRGKvZG/VUT1KjvVp3H32hl0wFH6bH815ZOTN9Z0M5a8t4ddnzxn0Fs1eW8IAXFt8Tit5uH7U/6zh9l18/HNw/apPrOqVdVOKqcxji/fKubZ7/3T5u7p8cYhpJUkhvlxa9O3wp6ovnRV4oSzlvn1NU1cNtxK5i9a5GR3BrUZoq8kkROGn5SaadveQX5VOKrqTWntkpO8S+8HEdRpbxelp9k9JXpB4XJbEcmJMAUUk8iy1FK51JI9V4ru6buvl3Vae6Oiid43WpgzV1GKuWvS0bgAPWcAAAAAAAAAAAAAAAAAAAAAAAAAAAAAAAAAAAAAAAAAAAAAAAAAAAAAAAAAAAAAAAAAAAAAAAAAAAAAAAAAAAAAAAAAAAAAD41bVfSTNRNXKxyIidvA+wPJjeNhSkHpcw8Ly4TxXW0jmK2ne9Zqd2nB0blVU083JfKh5s/MufBfT5bYckbWrO0uHvWaWms9YB5VHlU4Kup9Y8e7Da2yS8gF1x1J6HJ85hNeYvHAl+9Dl+apXfKa9MsmP7XLK5GwyvWneq/lorU/9ytLRXGhiudvqaOZNYaiJ0T072uRUX4lLh+jcRk4ZfDHXeY84dFw6fSaa1I68/jClaqfh2F/slVhy71VtrGKyenerV7nJ2OTyKminWqupxdME0t2bRtMONvvWZieoq6nHkOR+KunFSVxYmpayb9mZ6JJiJir4zkp1RPInWfWh6XaGarsANVEVUSsjVdOzg4jvZ5vjKDGc9FK/dbXU6tYmvBXtXeT4t8m7MTDLsXYOuVtj08Iezfh1/8AUaqOamvZqqaes7vR19JoPRx15x+7sdHvqOFWx067Wj39f3U8VR5VOU0L6eV8UrHRyMcrXMemitVOCoqHzVdTRxYleWtsKupwVQqnBV0JXFiatrLLbNXtFrv6yk/dREskS7NHtEr/AOspP3URLRKRG0bLe4Rz0OL2AAPUuAAAAAAAAAAAAAAAAAAAAAAAAAAAAAAAAAAAAAAAAAAAAAAAAAAAAAAAAAAAAAAAAAAAAAAAAAAAAAAAAAAAAAAAAAAAAAAB+KqIiqq6IgHQ4xwVbsbW3wWuYrXs1WGoZ93Eq93kXTinaQhech8SUE7kokgucOviujkSN2nlR6oiepVLA+zdu/w+l/1zfrPz2ctv4wpf9c36zm+IcH4fxO3pMvK3fExE+/rE+TRz6bDnne3XwVplybxixu8tmdonY2oiVfgR55684WvFg43G21NIzl1ksSoxfM7kvwluorvQzvRsdbTyOXk1srVX5T+iSJk0bo5GNkjcmjmuTVFTuVCIn6KaSa/g5J38dp/SIR9+FYrR9y8/CfkpOj1Y5Faqo5OKKnYWkyrzAixtYmMmkRLrStRlRGvBX9iSJ5F7e5fUeXzHyPpa+Ca44eiSmrG6vdRN4Ry/mfgr5OXmINtl2r8NXVlVRzSUVbTuVNU4Ki9rVRezsVFNLS01HAtRtkjetu7pPjHjH870TW+bhWb8SN6z8fZ4wtDmBlnbce07XTKtJcY27sVZG3VUT8Fye+T5OxeesJ3PIbFlDMraemguMevB8E7W8PKj1aSBhDaCtlfFHBfo1ttVyWeNqvhcvfomqt+NPKSNR4tslwj6ymu9DM38ioYunnTXgdTfTaHiM+liefhyn3wlb4NDxH8SLc/Cdp98SrRNkzjOBm+6yvVO5k8Tl+BHnl7vYLnYpEZcaCponLwTr4lai+ZV5+ouXBdaKqfuQ1lPK/8ABZK1y/EpzraGmuVNJTVcEdTTyJo+KZiOa5PKij7JxRH4dp/VqZOA4b1/CyTv47T+mylFtuVRaLhTVtJIsVRTyNljenY5F1T1FvMC40osc2KKvpXI2ZERtRT6+NC/Tii+TuXtT1kSZpZHMttPNd8Osd4PG1Xz0CqrlYic3MVeKp3ovq7iK8LYuueDbq2utk/VSJ4r2O4skb+C5O1DJp630lpraOUoXT6jNwTUTjzx92f5vCw2ZOStFjSZ9woJW266u+7cqaxTL+UicUXyp60Uh+syHxnTTOZHbY6pqf3yKqjRq/rORfiJZwltA2C9Rsiuqus1ZyXrEV8Ll8jkTh/nInnU99T4pstZEkkF3oZo199HUsVPlJP0eO89qEzk0PDOJz6al9pnrtMR5xPyVgXI3G/4k/3uD/rOK5GY4/En+9wf9ZaymuVJWuVtPVQTuTmkUiOX4lP6TNWsV6Mf9NaK3OL284/9Ud5HYTuuDsJ1dFeKXwSpkrnzNZ1jH6sWONEXVqqnNq/ASIAfc83TabT10uGuGnSvLmAA8bIAAAAAFb+kIzcxZkdst4jxfgm7ewuIqSqoo4KzwaGo3GyVDGPTclY5i6tcqcU8xZAp/wBLB7iXF/ptu+lxAY0MPdJ7tMV1/ttNPmVvwzVMUb2+wNsTVqvRFTVKbuUz3mrZhP202b02H56G0mAAAAAAAAAMeHSqbV2aezdf8uqbLnFP2Ow3alrZK1vsfS1XWujfCjF1nierdEe77nTXXiZDzEr04vtqyk9CuXz6cD5dHvt154547UmG8IY2xv7NYdq6atkno/Ymhp990dM97F34oGvTRzUXgvnMt5gW6J/3beEPQrj9ElM9IAAAAAAAAAAAAAAAAAAAAAAMY/S67W2OMr8QYbywwXeKzDDa+1peLnc7dMsNTNG+aSKOFkjdHMaiwSK7dVFdvNTXTVFycFPdv/YGj2vqGz3uw3emsGObNC6lgmr2OWlrKdzt5IZXMRXM3XK5zXNa7TfeitXVFaGLvY+218yMls4sOuqcUXa/YWuNfDS3Wz3KrkqYpIZHo10kbXqu5K3XeRzdFVWoi6oqobAxit2UOiGxJgzNKz4tzVvNnltllqo62ms9lmkndVTxuR0fWvfG1Gxo5EVUTeV2mi6IuplSAAAAAAAAAAAAAAAAAAAAAAAAAAAAAAAAAAAAAAAAAAAAfCt/kc/9G75D7nwrv5FUf0bvkPm35ZeT0UuVdTiqhVOKqfn3FiVzawqnqsH5mXzBs8fg1U+ookXxqOdyujVPJ+CvlT4zyhxVdSb0s5MNovjnaY7mKua+K3apO0rkYVxNR4vskFzoXKsUiaOY77qNyc2r5U+pe0hbaDwZHba6nv8ASxoyOsd1VS1qcOt01R3+ciLr5W+U/dnG9SRXu52pzl6maDwhqL2Pa5EXTzo7/wBqEm5v29txy6vLVbq6KNJ2r3KxyO+RFT1llTMcR0HbvH3o/WPn+7q72jiPD5vaPvRE+cfP91T1XTipwVdVCrqpxVTncWJX1rGvHge+wHnFecIVMcVTNLc7Wqoj6eZ+85id7HLyXycvlPA+VTiq6kzgrak715PnFqcmnvF8VtpXetV0pb1bqevopUnpahiSRyN7UX5F8nYVizwwTHhHFST0kfV2+4os0bUTRGPRfHank1VF8ztOwkTZqvUtXYLrbHqrmUUzJI9exJEdqietir6z+7aPt7KnA0FVonWU1WxUcvPdcjkVPh0X1HQzHpaRMu31814lwr6ztziN/LlP7qzKuhxVQqjkbOLEq61n6x7oXI9rla9F1RzV0VFJWyyz0uNgrIaG/VElwtT1RvXyqrpafy73Nze9F1Xu5aLEyqcVUlKYItG0smm12bRZIy4bbT8J9q+UUrJ42SRua+N6I5rmrqiovJUOZG+QF9lveXVMyZ6vfQzPpN5ee6iI5qepr0T1EkEZes0tNZ9S79JqI1WCmev/AFREgAPhtgBQrpNtu6r2e7NDl5gWqbFj280qzVVxYurrTSu1ajm90z9Hbuv3LU3tNVYoE1bR+3xlFsyVMtsxFepbvidjUcuH7GxtRVs1TVOtVXNZFwVF0e5HKioqIpTS/wDTjPSsVtkyiatK1V0luF+0e9OxdxkGje33zjFtLLWXu5PllfPX3CrmVznvV0ks0r3cVVeKuc5V86qpdHKDojs7czLNS3a8JacBUVQ1sjIL5NItarF7VgjY7cXT3sjmu7FROwLVZWdNdgm/3KCjx5gW5YRhkVGLcrbVpcYWL2uezcje1v5qPXyKSR0lOOsP5k9H9iHEWFrxR36x1tVbn09dQypJG9PDI0VNU5Ki6oqLoqKioqIqFDc4uiQzsyys1Td7N7FY9oadqvfBY5ZErUanNUgkY3f/ADWOc7yFXLLm5izCuXGK8uoq6VuF79LDLW2qoRVZHUQyse2ViL9xJ4m47vauioqtarQ87hP202b02H56G0matmE/bTZvTYfnobSYA8nmZmthDJvC0+I8a4gosOWaHgtTWyab7tFVGMamrpHqiLoxiK5dOCHV58514e2ecqr9jvEsqpb7ZDqynjVElq5nLuxQR683PcqJ3Imrl0RFVNezaM2lMa7T2PqjE+MLg6RqOc2gtcLlSlt8KrwjiZ2ck1cvjOVNVVQMmmZfTX4CsNbNTYIwLeMWsYu6lZcaplthev4TE3ZXqn5zWr5E5kfW7pyLg2qb4fk/TSU68HJT4gcx6ceaa06ovbw4edCrWzx0cGcu0XaKe+W61UuF8NVDUfBd8RSOp2VLee9FG1rpHoqcnbqMXsdzJ5vPQlZkU1vlktmP8MV9Y1NWQVEVRA1/k30a/RfUBcDIrpWMls4rhS2m61VZl/e6hyMZFf0alJI9dNEbUsVWpz5yJHy82tyo5GTRtkjcj2PRHNc1dUVF5KimsxnTkPjrZ7xc7DmPLBUWO4q3rIXPVHw1MeunWRStVWvb5l1ReCoi6oXW6L/bxuuAsYWbKDHFxfW4Pu0zaSy1lU9XPtVS7hHCjl/vD3aNRvJjnNVNGq4DMmYlenF9tWUnoVy+fTmWoxK9OL7aspPQrl8+nAgDon/dt4Q9CuP0SUyqbT3SA5VbLdS603uuqL/izdR32P2VrZJ4kVNWrM5yoyJFRUXRy7youqNVDBhkNnbetnzHyYyw4yJb7BQVdJRyypq2CSeF0XW7q8HKxHq5EXgqomvDVD1WRmy3m1teYkuVXhe1z3beqFkueIrvULHTMmeu85ZJnaq96qu8rWo5/HVU7QLtXDpx69a1/gOUFOykRdGpUYgc6RU71VKdETXu46d6ksZSdM5lfjGvgosbYau2AZJV08MbIlxo4+Pv3MayRPOkalcavoTs1YrKk1PjfCNRdETV1I51UyLzJL1SqvrYhTTPDZ4zA2c8TtsePsPT2WplRX01RqklNVsReLopWqrX6apqiLq3VNURVA2S8K4rsuOMP0V8w9daO92atZ1lNX0E7ZoZW8tWuaqovFFRe5UVDtjXt2JdtTEmybj+mV1RU3LAFfMiXmxb+83dXRFqIUVdGzNREXsR6Jur2K3YCw/frfiqxW69Wirjr7VcaeOrpKuFdWTRPajmPavcrVRfWB2B0+LcYWPAeHqy+4ju9HY7NRs36ivr52wwxp5XOVE4roiJzVVREPnjfGlmy5wheMUYhrWW6yWilkrKuqk5MjYmq6JzVV5I1OKqqImqqhr8bYu2Zi7a1x1NV1881swbRzO9h8PMfpFAziiSSoi6PmVObl101VG6IBkczY6ZzK3CFbNR4Jw3eMeyRKqeGPeltpJPzHPa6RfXEnrIih6ci6NqkdNk/Rvp9V1jZiFzX6dnjLTKnxFO9nLYXzb2n4krsK2OOhw6jlYuIL1ItNRK5F0VGKjXPlVF1Rera7RU0XQtBN0I2YbaBXw5iYZfW7iKkL4Khse92pvo1V08u76gLOZNdMDk7mJXU9uxXR3PLyumcjUnuCJU0Oq8kWaPxm8e10bWprqq89LxWu60V8t1NcLbWU9woKmNJYKqllbLFKxU1RzXNVUci96Ka320Lsp5k7MF8hoMd2JaSmqnKlHdqR/XUVXpz6uVOS9u45GuROKt0VCZuj6267zsyY3osN4grpa3K+61LY62lmcr0tb3rp4VCnvURV1e1Pum6rpvIgGeUqdtf9IRh7ZBxvZsN3jCVzxBPc7d7IsnoaiONrG9a+PdVHcddWKvrLXRSsqImSxPbJE9qOa9i6o5F5Ki9qGPjpHthDMnaszTwziHBc9jioLdZkoJkulY+F6ydfK/gjY3apo9OOveB5/7d7gj/FpiD9ug+ofbvcEf4tMQft0H1FavtNuff+GYP/2pL/YD7Tbn3/hmD/8Aakv9gBZX7d7gj/FpiD9ug+ofbvcEf4tMQft0H1GLDNnLWrygx/dsIXG7Wq8XK1SdRVz2Wd09OyVPuo0e5jdXNXg7RFRFRU11RdOpwbg29ZhYqteG8O26e7Xy5ztpqSipm7z5Xr2eRE4qqrwREVVVERVA2jyue2Pto2XY5tuF6y84cr8Qtv01RDE2hmZGsSxJGqq7e569YnLuLGGMDpxvatlH6bcvmU4ErZAdK3hTP7N/DeALfgS82qsvc0kMdZU1cT441bE+TVUTivBip6y9Jr19G97trK302o+iTmwoBWHbG27LFsc3LC9HecL3HELr9DUTRuoZ440iSJWIqO3uevWJy7jw2zL0n+F9pnOC1Zf2zBN3stZXwzytrKuqifGxIonSKio3jxRuhWzpxfbVlJ6Fcvn05AHRP+7bwh6FcfokoGekAAQLtf7Wtp2QcEWbEl4sNbiCC53H2OZBRSsjcx3VPk3lV3DTRip6yvuUXS74QzdzQwtgqjwBe7fVX+4w26Kqnq4XMidI5Go5yJxVE17Dpum0+8FgX9Jk+izmNbYp91xlD+k1D++aBsfEC7X+1radkHBFmxJeLDW4ggudx9jmQUUrI3Md1T5N5Vdw00Yqesnox1dNp94LAv6TJ9FnA7nKLpd8IZu5oYWwVR4Avdvqr/cYbdFVT1cLmROkcjUc5E4qia9hY3aQ2ycsNlq3xuxnenPvE8fWUthtjEnrp296M1RGN4L40jmtXRURVXga+mUWYlRlHmdhnGlHSx11XYa6K4QU8zlRkkka7zUcqcdNUTXTsJKy+yTzq25cxb1fbVb6zFN0q6nrLpiCvkSKkgeqcGvldo1NG6I2Nmqo1ERrdEQC7eI+nFVtxeyw5SI+gaqo2W43zdlkTsVWMgVG+bed5z3GU/TU4ExLc6ahx5gu5YMjlVrFuVDVJcaeNe172oyORre3xWvXyKVtufQv53UVlWrp7/gu4VrWq51vhr6lr3dzWPfTtaqr+UrUTvUpXmNltibKTGFwwti+zVNiv1A7dno6puipqmqOaqao5qpoqOaqoqLqiqBs24VxXZsc4doL9h650t5stfEk1LXUUqSRTMXta5PKiovcqKi8UIX2ktuHKnZcTwTFd5krcQuYkjMPWdjZ61WqmrXParkbG1exXubr2amHHZf2+Md7LeXGNMJ2BsddDd40ltUlWu+y01aqjZJ2MVNHbzNfFXhvsYqoqbyO8JlFs/Zs7XeNLnNhi01uJ7jLOtRdL3Xz7kMcj3aufNPIuiuXVV3UVXrxVEXQC+OIOnGele9tjyja6iaqo2W4X3SR6diqxkCo3zbzvOexyv6bDBV9uENJjvAdzwpE9UYtwtlW24xMXtc9isje1v5qPXyKV4quhcztgtHhMWIsE1FajVctEyuqkcvDg1r1pkaruzjonlKa5tZPYwyMxnU4VxxY6iw3qBqP6mbRzZY11RJI3tVWyMXRdHNVU1RU5oqAbK+BMe4dzOwrQYlwpeKS/WKvZ1lPXUUiPjenJU70ci6orV0VqoqKiKiod+YIujD2prlkbnxacJV1a92CcYVUduq6WR/8XT1b1RkFQ3Xg1d9WscvBFY5VXXcbpndAAAAAAAAAAAAAAAAAAAAfKqjWWmmY37pzFamveqH1B5Mb8hSReC6dpxPa5tYNlwliqpc2NUt9Y909PJpw4rq5nnaq/BoeIVdSmbaS2ny2xXjnEq0z1thvNLdYFXU48hyPxV04qSGLE0bWSbs9uRMfP1VEV1HIiJ38WqTnmK1X4CxAiJqvgMy/A1VKy5Y4gZhvHVqrZnIyn6zqpXO5NY9Faqr5E119Rbeqpo6ymmp5m78UrFje1e1qpoqHdcMjfTWx+34ux4PaM2jviiee8/GFHVUeVTvMa4SqsF4hqbbVNcrGO3oZVThLGv3Lk/59y6p2HQqupp0wzWdphX+WLYrTS8bTAq6nBVCqcFXQlMWJpWsnTZflRJ8Rxdrm07vgWRP+Z7PaBhfLlrVuanCOeFzvNvInyqhEez7iGOzY9bTTP3YrjC6nTVeG/qjm/DoqJ5XFj8VWCLFOHbhapl3WVUSsR2mu67m13qVEX1EpWOzERKxOF/8AGcHtgp12tHvneY/VSPkcVU/tvVoq7BdKm318SwVVO9WPYvf3p3ovNF7lP4FUmcWPdVeTekzW3KYFU4KuoVdT8VdfMS2LE1LWWb2Y11wFX/1nJ+6iJeIh2YvaFX/1nJ+6iJeOc1cbZ7x4r04Hz4bh9gADUTga0e0xmnUZ15+47xpPP4Qy6XWZ9K7e3kbSsXq6diL2o2JkbfUbKF3ZUy2mtZRru1boHpCqLpo/dXd4+fQ1YwMo3Q77Ktrv7LlnTiWhjrJKGsW34egqGatjlY1HTVSIqaK5N5rGL71UkXmiKmWIqf0WXUfwGMuuq6vrN+59duaa7/sjU6b2nbu7vPs08hbAAYjOmN2X7bhO7WbOTDtGyjZe6r2Nv0MLdGPq9xXw1Gicle1kjXrwRVYxeLnuVcuZTnpaPB/4FWJuu3Os9kbf1O9z3/CWa7vl3d71agYMsJ+2mzemw/PQ2kzVswn7abN6bD89DaTAxOdNxmnUvv2XmW8ErmUkVLJiCriReEj3vdBAqp+SkdR+uVo6M/Z9tG0HtNUVHiOlZXYcw/RSXuto5Wb0dUsb444on68FaskrXK1dd5rHJ2nvemUR6bW1ArkVEXDFGrde7rqjl69SjlFcqu2SOko6qalkcm6roJFYqp3aooG09HGyGNscbUYxiI1rWpoiInJEQ5GrZ9ll7/HNw/an/WPssvf45uH7U/6wM/nSIZJ2rOjZWxqlXSNlu+HKCe/Wupa3WWGWnjWR7W9qpJG17Fb27yLzRFTXxgnkpZ45oZHxTRuR7JI3K1zXIuqKipyVDsJMUXmaN0cl2rnscitc11S9UVF5oqanWAbOGRmOJMzMlsB4tmcjqi92KiuE2iImkskDHvTh3OVU9RjN6cX21ZSehXL59OX/ANij3I+UP6M0P7ppQDpxfbVlJ6Fcvn04GPfJLK2vzszbwngW2ydTVX24RUfX7u8kEarrJKqdqMYjnqnc02SMr8ssO5OYCs2DsK29ltsdqgSCCFum87T7p71989y6uc5eKqqqYOein8H/AIcGBuu3Os8GuXU73Pf8Bn108u7verUz4ACMdozZ/wAM7SuVd2wXiWmY5lRGr6Ku3EWWgqkRernjXsVqrxT3zVc1eCqScANW/GOFLjgPF17w1eIkgu1mrp7fVxNXVGTRPWN6Ivam81eJmw6ITNGpx5sqewVdP11ThO6zWyLeXV3gz2tni17dEWWRqeRiJ2GLPb38F/hj5s+B7vU+zcm9u6adZut6zl27+9r268+OpfXoPWVKYFzVe5XeCLcqFI9XcN9Ipd/h2cFZx83cB6npos06nC2RmFME0kroXYruj5qndX/zKakax6sXydbLA7/MMZWx3krTbQe0jgjA1esjbTX1bprgsfBVpoY3TStRfeq5sasR3Yr0Uu304yP+ybKJVR24tHc0RezXfptf+XxGMWkrKignSamnkp5m6okkT1a5NefFANpSxWK3YYs1DaLRQ09ttdDCynpaOljSOKGNqaNY1qcERERE0Q/uNWz7LL3+Obh+1P8ArH2WXv8AHNw/an/WBsn7QWTFm2gMoMS4GvdPHLDc6V7aeZ6eNS1KIqwzsXscx+i+VNUXVFVF1nZoX08r4pWOjlY5WuY9NFaqc0VOxTs/ssvf45uH7U/6zqlVXKqqqqq8VVQNh7o9cf1GZGxxlndayZZqynt77XK566uXwWZ9O1XL2qrImLr268SxRT/on/cS4Q9NuP0uUuAAMdvSZ9IEmU1urcqsu7gi41rYdy73amei+xML0VFiYqLwqHJ2842qip4yorff9Int5UmzJhZ+EsJ1MVVmbd6dVi00e20QORUSpkRUVFevHcYvb4y8ERHYNLhca2/XWprq6onuFxrZnTz1E71klnle5Vc9zl4uc5yqqqvFVUBbLZW366Utvt9LPcLjWTNggpqeNZJZpHLo1jWpqrnKqoiInFVUzndHdsHUezDhRuK8VU8NXmdd4ESZ6eM21QORF8GjXkr9U/jHpzXxU8VNXeE6NHo+25O2yjzRzFtqfZ3WRb9rtVVH41mhcipvvReU72ry5xtXTg5XImQsAYwOnG9q2Ufpty+ZTmT8xgdON7Vso/Tbl8ynApV0b3u2srfTaj6JObChr19G97trK302o+iTmwoBiV6cX21ZSehXL59OQB0T/u28IehXH6JKT/04vtqyk9CuXz6cgDon/dt4Q9CuP0SUDPSAAMdXTafeCwL+kyfRZzGtsU+64yh/Sah/fNMlPTafeCwL+kyfRZzGtsU+64yh/Sah/fNA2PjHV02n3gsC/pMn0WcyKmOrptPvBYF/SZPos4GInAWEKvMDHOHcL0DkbXXu5U1sp3KmqJJNK2NvDt4uQ2WsosqMOZI5eWXBmFaGOgs9rgbExGtRHzP08eWRU+6keurnO7VU18Ni2Nku1tlA17UeiYooHaOTXikzVRfUqIpsgADF/wBNxljRSYWy7zDhp2R3CGtlsNTO1vjSxyRunha5dPeLFOqJr/fHerKAUA6av3LGFv0zpfoNcBhqwth2qxfie0WKhRFrbpWQ0UCLyWSR6Mb8bkNlzJXKDD+RGWNgwRhqmZBbLVTtiWRGo19TLp/GTyd73u1cvlXROCIhrx7KCI7alycRURUXGdmRUXt/8dCbKgAoj0wuUtuxhsxNxq6nal4whcIJI6pETe8HqJGQSRr5Fe+F3nYnlL3FVelH9wnmb/oz/ilIBgJt1fParhTVtLIsVTTStmikTm17VRWr6lRDaXttcy526lrI2qxlREyVrXc0RyIqIvwmrAbSWE/arZvQofmIB2wAAAAAAAAAAAAAAAAAAAHF7kYxznLo1E1VV7AOvv8Ah634ntslBcqdtTTv46LwVq9jmrzRfKQ3e9m6oSVzrPdonxKvCOtarVan5zUXX4EJM/up4T/HtJ+sv1H5/dUwl+PqT9ZfqIrUYdFqp3yTEz3780TqKaLU88to3794Q47ZyxKiKvhtrcqJwRJpOP8A+s81f8osVWBj5ZrY6pgamqy0jklTTv0TxkTyqhYluaeE3OREv1Hqq6cX6J8h6C33Sju9Ok9DVwVkC8OsgkR7dfOhrxw3S25Y7fHdHTwnQ542xX5+ExKkS89Cy+S2ZcWJ7TFaK6VG3ekYjWq9f5RGnJyd7kTmnr79P7MycoLdjOnlq6NkdDeURXJM1ujZ17np5fwuaeXkVlnjrbBdXxv62ir6SXRdFVr43tXsVO3yoe4sV9HfvhATGo4FqIvP3qz8flK4GL8FWrHFuSkucCvRqqsU0a7skS97V/5Lqi9xDN32Z7kyZ3sZd6WaJV4JVtdG5E/zUdr8RzwdtHT0cbKbEVK6sa1NErKVESRfzmroi+dFTzKSTQZ04Nr40cl5jgdpxZPG9ip8KafApK7Y8nNN3vwnikdvJMRbxnsz/v8AFEEmzZihjFVtZanr+C2aTVfhjPIYkyuxPhSN01dapVpm8VqIFSWNE71Vuu6nn0LOQ5qYRnkaxuIKFHLy35N1PhXgh6WnqYayBs0ErJ4Xpq2SNyOa5PIqGatYr6mvbgPD9TWY0+Tn4TE+cf7qL088lHPHPC9Y5o3I9j2rorXIuqKhbbKzMimx/ZGK97Y7tTtRKqn5Lry32p+CvxLw7tfKZsZH017p57rh+BtNc2or5KSNESOo79E7H/EvnXUrzbLtX4eucdXRTy0VbA7xXsXRzV7UVPiVFJCmKuevLq5zHl1P0a1W2WO1S3d0nxjxju/+rc48ywsuYELVro3QVsbd2Osg0SRqdy9jk8i+rTUh24bMF7ZMqUN3t9RFrwdUI+J3wI13ync4R2mYXRMgxHQPbKnDwuiRFa7yuYq8PUq+ZCQaTOnBdbGjmX2FnDXSZj41T4WofVY1ODlEcvN0OSOB8X/FvaIt7ezPvj1/H2oaXZjxSv8A9faP9dL/AGYXZixT/h9o/wBdL/Zk50maOEq6dsUWIaBZHcER8yMRfW7RD07JGysa9jkexyao5q6oqGWdbqcXWNvcY/o5wjPzxz2vZbf9HhsncCV+XuGaq3XGammnlrHVCOpXOc1GqxjdF3mouurV7O492ARuTJbLeb26y6zTaemkw1wYvy15QAAxtkNa/auypqclNorH2EZ4XQw0V1mko9739JK7rad3riezXTt1TsNlAo70lmwvPtK4ZpsaYLgj/uh2KndEtLwb7LUiKrup17JWKrlYq8F3nNXm1WhXjogNrWz4VbXZL4qr2UHsjWrXYdqqh+kb53o1slJqvBquVrXsT3zlen3StRctJqw19BW2O51FFW009vuFJK6KannY6KWGRq6Oa5q6K1yKmiovFFQtllF0p2fWUtlgtK3i3YyoKZnVwNxTSvqZI26aInXRyRyP0/Lc74OAGewxD9MLtUWrGt1tGTuGq2Oup7HWLcL7UwP3mJWIxzI6dFTmsaPkV6cdHOanBWKhB2bXSqZ95rWSotLLvbMGUVS3cn+xakfTzPbpoqJNJJJIzXvY5q+XTgV4seT2K8TZZ4qzEhoHtwph+SCKrudRq1ks80rI2wxrp47/AB99ye9anFUVzUUPOYT9tNm9Nh+ehtJmrZhP202b02H56G0mBii6bfKip9k8vcy6eFX0roJMPVsqN4Rua509Oir+Vv1P6vlKodHbnxYchNpG21+LGQfYre6Z9muFRUsa+OkSRzHRzqjuCI2SNm87sY56+Rc6Wd+TmH8/crr/AIFxNE59ru0HV9bHp1lPKio6OaNV5OY9GuTsXTRdUVUNfDaZ2Xsa7LOPqjDuKqJz6N73Lbb1BGqUtxiTk+N3Y5EVN5irq1e9NFUNi+lw5h2tpoqintdrqKeZiSRyxU8bmPaqao5FRNFRU4oqH0+xOx/ia3/srPqNfXZ+2+M5dm+gitWGsRtuWHYv/LsV9iWrpI+OukfFHxJqqrpG9qKqqqpqWFqOmwzcfSObDgvBcVSrdEldDVuai9q7vhCfKBlzxNBg7BuH7hfL5TWe1We3wuqKqtqoY2RQxtTVXOVU4Iddl3ecv82MG2zFeEmWe92C5R9bTVlPTM0cnJUVFaitcioqK1yIrVRUVEVDX6z/ANsfNjaXVkGNsTyz2iOTrIrLQMSmoo3dirG37tU7HSK5U1XReJdjoa7XnJR3y61cEEkWS9U2RapbkrmxyViJox9Eip4z9Wo2RU0Zup4yq5rEAyxQQR00LIoY2RRMTdaxjUa1qdyInIxM9OL7aspPQrl8+nMtRiV6cX21ZSehXL59OBj1yWzRuOSmbGFcdWpiS1tiuEVYkCu3UnYi6SRKvYj2K5ir3OU2Qsoc28M55Ze2fGeEq9tws1yiR7F1TrIX+/ikbr4sjF1Rze9O1NFNcTJXJjEWfmOG4QwpHDUX+ajqaumpp5NxKhYYnSrG1y8Ec5GqjddE1VNVROKd9lHn9mtso4uuCYTvdxwpcWyLDcbRVwo6KR7V0Vs1PK1W7ycU1VEc3VdFTUDZPIn2mdo7C+zBlZcsX4jqY1nax0dttiPRJrhVaeJExOemuiudya3VV5GJut6ZXPmqtHgcVBg2iqNNPD4LXOs3bx0fO6Pt/A7Co2a2cmNc8MTvxDjrEddiS6uTdZLVv8SFmuu5FGmjI268d1iInHkB0WL8U3HHGK71iO7zeEXW71s1fVy8fHmler3rx73OUzidE1lLVZZ7JlvudwgdT12La+W+IyRNHJTuayKD1OZEkieSVDG1sFbC192psbUd5vNHUW7LC21G9cbk5FZ4c5q6+CwL75zuCOcnBjVVdd7dRc9dut9NabfTUNFBHS0dLE2GCCFqNZHG1ERrWonJEREREAx/9M7lRU4uyFw1jWjhdNJhK6OZU7rderpapGsc/X+ljp0/zvIYt9lTOCkyG2gMG42uVIldaLfVqy4U3VpIr6WVjopVRq8HOax6uai++anI2OMYYStOPMK3fDl9o2XCzXWlko6ylk5SRParXJ3pwXgqcUXihgA2z9ifFeyXjaZssM93wLWyqtpxA2PxHNXVUhnVODJmonFOCORN5vajQz3YYiwbjTD9vvtip7PdrPcIW1FLW0kMckU0bk1RzXInE7P7E7H+Jrf+ys+o11sgNsPNfZokdHgjE8tPaZHrJNZa5iVNDI5ebuqd9w5dE1cxWuXROJaSLpsM3G0aMkwXgt9SjdFlSGrRiu793r+Xk19YGYGow3h6kp5Z57XbIIImq+SWSnja1jUTVVVVTRERO08jlZjbK/OzD898wPU2LElrgqpaKWoo6dioyWN2jmqitRU7HIumjmua5NUVFXBTn/t+ZzbR1umtOJMRstuHZl1ksdih8EpZPJJxWSRv5L3uTVEXTVCY+iYtWciZ4MuOBoJG5fq9sOKZa5XNoJIU4o1q6LvVLd7ViN4pr4yoxztQza0lHT0ECQ0sEdNC3VUjhYjWprz4IVq259tOy7I+XyLB1Fzx9d43tstofxamnBaidEVFSJqry4K9ybqcnObZs14ekNu9beNszNF1dVy1Tqe5+DQ9a9XdXEyNiMY3uaidiAQbjHGF6zAxRc8R4iuU93vdyndUVdbUv3nyvXtVexE4IiJwRERE0RDKD0YPR8pAy1ZzZlW3WRyNqcNWOrjRURqoisrpWr29sbV5cH/gaYvMJ4ikwjia2XuGiorjNb6hlTHS3KBJ6aRzV1RJI14PbqiatXgvJUVNULep0u+0K1ERLjh9ETgiJZ2cPjAzqgwV/bedob8ZYf8A9js+sfbedob8ZYf/ANjs+sDOoYwOnG9q2Ufpty+ZTl59lLMe85u7OuAsZYhfDJerxbW1NU+njSONXq5ycGpyTghRjpxvatlH6bcvmU4FKuje921lb6bUfRJzYUNevo3vdtZW+m1H0Sc2FAMUfTjWepS4ZQ3VGb1GsVzpVemvivRaZyIvnRV0/NXuKRbE2blFkdtSZfYuulR4LaKauWlr5lXxI6eojfBJI7vaxJd9fzO9EM0vSA7M821Bs9XKyWmNr8V2iZLtZUcqN62djXNdCqr2SRue1NVRN7cVeCGvrdbVWWO51duuNJNQXCkldBUUtTGscsMjVVHMe1eLXIqKiovFFQDabilZURMlie2SJ7Uc17F1RyLyVF7UOZr7ZG9I/nfkJhylw9aL9S32wUjUjpbfiGm8KbTMTkxj0c2RGInBG7+6iJoiIdrm30omfmbVmqLS+/0WErdUtcyeLDFKtK+Rq+965znytTTh4r01TnqBL3TFbRlnzGzGw7lxh6sir6bCXXTXSpgcjmeGyo1OpRycFWNjfG05Okc1eLVRKr7FPuuMof0mof3zTrsRbOWJ8JbPdozZv0Elstt9vLbbaaWoYrZaqLqZZH1PHkzVjWtX33jLyRqu7HYp91xlD+k1D++aBsfGOrptPvBYF/SZPos5kVMdXTafeCwL+kyfRZwMa2xT7rjKH9JqH9802PjXB2KfdcZQ/pNQ/vmmx8AKAdNX7ljC36Z0v0GuL/lAOmr9yxhb9M6X6DXAYq9k73U+Tf6Z2b6dCbKZrWbJ3up8m/0zs306E2UwBVXpR/cJ5m/6M/4pSFqiqvSj+4TzN/0Z/wAUpAMAJtJYT9qtm9Ch+Yhq2m0lhP2q2b0KH5iAdsAAAAAAAAAAAAAAAAAAB8K/+Q1H9G75D7nwr/5DUf0bvkPJ6PJ6SpIq6cVOCrqoVdVOKqV/ixKetYVTsbBiK44YuDK221UlLO38FeD07nJyVPIp13lU4qupL4ccxO8Nf0lqTFqztMLe5bY8gx/h9tW1rYqyFUjqoEX7l+nNPyV5p607CNdpDB7GspMR00e69XJTVWic+HiOX4Fbr+adBs5XSSlxtUUaKvU1VK7eb+U1UVF+DeT1kzZuULbhlxfo3Ii7lP1ya9isVHJ8h0VfxMf3nfVyfavCbWyfmiJ845/FT9V0OKqFUcjaxYlW2scj0eCcwbtgO4tqKCdzqZXIs1G9f4uVPKnYvlTinxHmlU4qpK48UTG0sdM+TBeMmO20x64XgwviOkxZYqS60TlWnqGbyNdzYvJzV8qKioV22icFssOJorvSxoyluaK56NTg2ZPuv1kVF8+8et2XbtJPbL7bnO1iglinjaq9r0cjvmN+E7zaSo2VGXjJXIm/BWRvaunHijmqnx/EYsMTh1MU/nNZeutXi3A/rN4+9Eb++J2nz5qtquvmOKqFU/FU7LFiU5awqnucs82bnl/cIo3SSVdme7+Oo3LqjUXm6PXk74l7e9PBquh+EhOmplpNMkbxL3Bq82kyxmwW2tH88l+KCugudFT1lLIk1NURtljkbyc1yaovwKf0EW7OF1luWW7IpHK7wKrkpmqv4OjXp8/QlIrTU4fq+a2Lul+i9Dqfrulx6jbbtRE/MABrN4AAFftovYWyj2nJX1+KrC+ixGrEYmILNIlNWqiJom+uisl0REROsa7RE0TQp3e+g3tU9c91nzgrKGjVV3Yq7D7KmRE7NXtqI0X9VDKKAMe+V/Qw5WYUuVPW4wxLe8cdS5HLQta230svkejFdJp+bI0tFnFsq4MzZyElyigidg/CaugWKKwRRxdQkUrZURrVareLm8VVNV1Vea6kzADHnbehZyutlxpayPHGLnPp5WSta5aXRVaqKiL/ABPkMhgAA85j/LrDGamGKrDuL7FQ4islToslFXwpIzeTk5NeLXJrwc3RU7FQ9GAMeuZPQu5V4krZKrCGKL9gxHrr4HJu3Cnj8jUerZP1pHEe0HQa0kdQjq3Oaaog7WU+Gkid+stW5PiMpgApfk90TWRmWFVT193orhj+5RKj0XEMzVpUcndTxta1zfyZN9C5NDQ01so4KSjp4qSkgYkcUEDEZHGxE0RrWpwRETgiIfcACtm1xsL4T2wrjhqsxLf7zZX2KKeKBtqWLSRJVYrld1jHcurTTTTmpZMAU42cOjGwHs05s2zH1ixViK6XKginijprisHUuSWJ0blXcjavBHKqceZJe0ZsP5TbT+9VYssTqTECMSNmILO9Keuaickc7RWyInYkjXadmhPgAxc3noN7ZPWudac4auio1+5ircPNqZE8721MaL+qSllD0OuUOArnBcsWXO7ZgVELt5tJVq2konL2K6KPV7uzgsm6vaioX0AH8Nksduw1aaS12igprXbKSNIqejo4mxQwsTk1jGoiNRO5EP7gAB1uI8N2nF9jrbNfLbSXi0VsaxVNBXQtmhmYvvXscioqedDsgBQzNfodMnMb1s1dhW43rAVRIquWmpJEq6NFXjqkcvjp5kkRE5IiESRdBpTJV70mc8r6beX+LbhhGv07E3vC1TXlx3TKcAKKZVdD1krgaqircS1N6x7VMXXqLhOlNR6pyXq4UR6+VHSKi93PW7GG8MWfBtjpLNYbXR2W0UbOrp6GggbDDC3uaxqIiJ5kOzAAo9nN0TuXedeaWJMc3TF+J6G4XyqWrmpqNafqo3KiJo3eiVdOHaql4QBjq+0l5Wfz6xh+tS/2I+0l5Wfz6xh+tS/2JkVAGOr7SXlZ/PrGH61L/Yj7SXlZ/PrGH61L/YmRUAeLyYytt+SeVuG8DWqrqa632OlSkhqazd62RqKq6u3URNePYiEY7XGxnhjbCt2GqPEt7u1lZYpZ5YHWpYtZFlRiOR3WMdy6tNNNOalggBSfIroq8vsg82cPY+s+LcS3G5WWV8sNNXLT9S9XRvjVHbsSLyeq8FTkXYAAFc9pDYHyj2nap10xFZ5rRiVW7q3+xPbT1UmnLrdWuZLpwTV7VciJoiohYwAYt7j0G1vlrt6gziqaaj/9Kpw42aTn+GlSxOWnvfqJsyK6JXJ3KW6U94xC+tzFu0Dt+Nl5axlCxycl8Gbwf28JHPby4apqXcAEGbVuyVhva0wRZcMYgutysdDaq5K+F9p6tHK5I3xo1d9rk3dHryTsQgnKjoj8ucpMy8M40t2McUVlfYbhDcIKeqWm6qR8bkcjXbsSLounYqF6QAIO2sdk7Du11gyz4bxJeLnZqW2XD2Qjltax7739W+PdXfa5NNHqvBOxCcQBRbKjoj8ucpMy8M40t2McUVlfYbhDcIKeqWm6qR8bkcjXbsSLounYqF6QABC+1dsuWDa2y7t2EMR3a5WehorrHdmT2tY+sdIyGaJGrvtcm7pO5eWuqITQAKG5b9EFltlnmJhbF9DjPFVVXYfutLdoIKhabq5JIJmyta/SJF3VViIuiouil8gABHW0LklatozJ+/5eXuvrLZbLz4P11VQbnXM6qojnbu76K3i6JEXVOSqSKAMdX2kvKz+fWMP1qX+xMhltoWWy3UtHG5Xsp4mRNc7mqNRERV+A/pAAAAAAAAAAAAAAAAAAAAD51EfXQSRouivardfOh9ABRqVjopHMeitc1VRyLzRTj5VJKzuwDNhnEc10p4lW13CRZEc1OEcq8XMXu1XVU8i6dhGarqcxGnnHaaz6lOavFfTZbYr9YFXU4KoVTgq6ElixI21kl7Pf3x4fRpfkQsFmJA+pwHiCONquetDNo1O3RiqV82evvjw+jS/IhaOSNssbmPaj2ORWuaqaoqL2EnWvZhY3AK+l4denfMx8IUQ5HFVPX5nYBqcA4hlp3Me63TOV9JOvFHM/BVfwm66L8PaeOVSZw0i0bwq3UY76fJbFlja0CqcFXUKup+KuvmJfFiaFrJ12WV1r8Rf0cHyvPebQVK6pyxr3NRV6mWGRdE7N9E//AKPBbLC/+PxF/RQfK8na+2enxDZq22VSa09VE6J+nNEVNNU8qc08qEPqLRh1van1TH7Lb4PgnVcB9DHW0XjzmVElU4Kuh3mMsI3DBF8ntlwjVsjFVY5UTxJma8HtXuX4uS8ToiwcNa3rF6zvEqWzUvivOPJG1o5TAADcYFoNl72gXD+s5P3URMBD+y97QLh/Wcn7qImAq/iX+Mye1+huAf8AK8H/AGgAIxPgAAAAAAAAAAAAAAAAAAAAAAAAAAAAAAAAAAAAAAAAAAAAAAAAAAAAAAAAAAAAAAAAAAAAAAAAAAAAAAAAAAAAAAAAAAAAAAAPhW0NPcqSWlqoY6inlbuvilajmuTyopFV82cLHXzult1bU2veXXqlRJmN82ui/CqkuA+bVrbrDT1Gj0+rjbNSJ/nf1QR/Be/ym/3D/un5/Bc/ym/3D/uk8ARWI6IyeBcOn/K+NvmizLzI77AsRsu3s14duxPj6rwTq9d7t131+QlMA+5ndKabSYdHT0eCu0dfXP6v4L3YrfiO3yUNzpI6ylfzjkTkvei80XypxImvGzFaKqZz7ddqqgYvFI5Y0mRvm4tXTzqvnJoBkplvj/LLDquHaTW/4jHFp7/X5xzQEuytr/8AlH/x/wD3R/BV/wAqP/j/APuk+g2o12or0t8I+SKn6N8Kn/J/8rfNHmVmUv8AczqLjL7K+yXhbWN08H6rc3VX8t2uupIYBq5ct81pved5Tml0uHR4owYK7Vj1c568/W6TFWDbPjSg8Eu9GyqjTix/J8a97XJxT/n2kU1uyxa5JlWkvtXBF2MmhbIqetFb8hOINjBrdRpo7OK8xH872nq+E6HX27eoxRae/pPnG0oH/gqUv84pv2RP+sfwVKX+cU37In/WTwDa+19b/qfCPkjv6a4T/o/G3zeSy0y/jy3sU9sjrXVzZal1T1jo0YqKrWt001X8D4z1oBGZMl815yXneZdBgwY9NirhxRtWvSAAGNnAAAAAAAAAAAAAAAAAAAAAAAAAAAAAAAAAAAAAAAAAAAAAAAAAAAAAAAAAAAAAAAAAAAAAAAAAAAAAAAAAAAAAAAAAAAAAAAAAAAAAAAAAAAAAAAAAAAAAAAAAAAAAAAAAAAAAAAAAAAAAAAAAAAAAAAAAAAAAAAAAAAAAAAAAAAAAAAAAAAAAAAAAAAAAAAAAAAAAAAAAAAAAAAAAAAAAAAAAAAAAAAAAAAAAAAAAAAAAAAAAAAAAAAAAAAAAAAAAAAAAAAAAAAAAAAAAAAAAAAAAAAAAAAAAAAAAAAAAAAAAAAAAAAAAAAAAAAAAAAAAAAAAAAAAAAAAAAAAAAAAAAAAAAAAAAAAAAAAAAAAAAAAAAAAAAAAAAAAAAAAAAAAAAAAAAAAAAAAAAAAAAAAAAAAAAAAAAAAAAAAAAAAAAAAAAAAAAAAAAAAAAAAAAAAAAAAAAAAAAAAAAAAAAAAAAAAAAAAAAAAAAAAAAAAAAAAAAAAAAAAAAAAAAAAAAAAAAAAAAAAAAAAAAAAAAAAAAAAAAAAAAAAAAAAAAAAAAAAAAAAAAAAAAAAAAAAAAAAAAAAAAAAAAAAAAAAAAAAAAAAAAAAAAAAAAAAAAAAAAAAAAAAAAAAAAAAAAAAAAAAAAAAAAAAAAAAAAAAAAAAAAAAAAAAAAAAAAAAAAAAAAAAAAAAAAAAAAAAAB//2Q==;" vertex="1" parent="WIyWlLk6GJQsqaUBKTNV-1">
          <mxGeometry x="290" y="247.5" width="140" height="55" as="geometry" />
        </mxCell>
        <mxCell id="kvc4LLjoX2ohHxMDiTU2-51" value="" style="shape=image;html=1;verticalLabelPosition=bottom;verticalAlign=top;imageAspect=0;image=data:image/png,iVBORw0KGgoAAAANSUhEUgAAAS8AAAF8CAYAAACexD2BAAAAAXNSR0IArs4c6QAAAARnQU1BAACxjwv8YQUAAAAJcEhZcwAADsMAAA7DAcdvqGQAADQHSURBVHhe7Z2/jv06kt/vc3V2Yz+GgQ4n9ys46skn3zfowGs4NuBHuIYdjLPZxe4CgwnmAtOu4h+xqlikqHMoHbH7+wGIOZSoInXu4edXUlOaX74AAGBBIC8AwJJcIq+//e1vDxcAAPC4TF6//vrr4QJ5AQBafBN5fX69//L29fGb/TyLkZi/fX28/fL1yy+pvH3QFsY71mz7fC/H/fJOe3mTiCXKWz5IHSO2Bzg+bX/nSDW/fbzRMfL7KnG4xMNa2wG4B5CXi42xE/O3j683O7lp28cmAXus2BaOjcIKbMdlnOODuOS2KM4isHjM25s3Zt7HMsr7vPExZnvoU4wTgBczJK//9s///euPf/xjs/D+Hlle//5v/7GVkfoa8oriaGcl3rFiG0thy9I87PGN/pQE4zHv7yQwO2ju7/1dxGydm93eagfAaxiSFwvq77//3iy8v8cp8krZDl/OvH181JPxU+4XM04c518K8fFlf7z06sS0mVOFN+nltthfJZkNc3yzP5aajMmf+X9l29zG9i/ib5jtu5IF4FouldfR0pYXT6wiHvceTp5oYbLrfZuw1D6JndCdmPz5UObE2G0xm2rLVLRt9iczsnIM3ztT5xuOlTH5c+w7Fpm9ie31wAB4KWtmXtUEtpNRikFM4CAdnbWoyb1hYxyLqamP9bcRIZYdj2nb7M/LvHhz+a7KucqYjbHYGN1zBOB6huX1r//6L1//6T//U1V4+73lJTISZxI+Ji+Z5cjPHlIqiY4MQhapgvX6FqiY8pjUP1/ybt+Z3G/jZ/R2Hlf70haA6zkkr1YZldfR0pRXmFhlAnuXjf49KX1ce8LriduPSYS/xBmhUJv8V0MWpLxfFOq5MUml9BPFpCVhx0JUf/kz47PHpPH5+534Abu91Q6A1zAsrz//+c/NcnnmxaQJGSdlfcOe/9KW91uplBv27ckZBMNtwsE7MRkVl4rKDKOU/H0cW+yrAjekIc6fiz7MHsP9W9nJ70v0TyVKru43/COhxg7A61hXXgCAH82QvGat8zpaIC8AQIsheT0LS+jRAgAAHpfICwAAZgN5AQCWBPICACwJ5AUAWJLl5fWPf/zDvdHvFQDA92F5ef3973//+pf/8z+//vfnf+kWyAuA78Vy8rLZFJf/+z/+69f/+1//pBa5yjImr94q+BaN1e8AgNNZUl42qxopXXmlR3vsY0T6jaYekBcAr+Jyec1Yre/Jaa+05RUzruqRwiEgLwBexeXyYkF57wTLhff3mC6vkHXJh5YdzEPXRXRSXlZkzj7xJlaOEd+GEevVGx8+5IPneZ++tH1MuAB8DyAvFlP3/hbLRIgiiMwTlvzM2H0knNyPfUWNesVNaps7lPv4M4wFQADy2su8nP1jbyQd3ccMtk0ZYMnEAPi5vERe/ALDZ97K6slprzTltXfP607ySuTLTSRh4CfzMnm1yvXyItJlnJIBSav8/y6KfUpmUixGgiHmqJBkfa9tBK9lBj+dl8jLe6FhLi+RF5MuyfLNcLXOS+3riCVJMJTu/zdir97ZJ+P3LnUB+AFAXgCAJblcXjPWeT1aAADfh8vlBQAAM4C8AABLAnkBAJYE8gIALAnkBQBYEsgLALAkkBcAYEkgr6nwavi8Aj6W8shRbx/TepMrHycfRxJtqOw9IhSegwwd2WN7K/7TWPQAL8KO5XHKuVPU93Lu8juTryWSTy142znGeo9kye+zfF7zXDSQV4Pff//9669//eu2wJU/87Y+ZuKFx3m85yAN6fEj5Qr1bGUrBtdpcrUkw3GVBMuxYXI29r32h23P8UHkuW/fJVOfq/f1+dtZ6hPG1mTSuStkTPn57HM5H8jLgSX1l7/85esPf/jD16+//hoKf+ZtfYHZH1/rhyMxD3RX8HEdAQbxlYxBwoIqEhobm8xWXoNzjg+gz12iJ+3nu99XazvtOPH7mXPuGv+/c+DUczmfHy0v+eiQLVJcUmCcgbVxfhyN7GajI58IH9fL3lrys/+y2mNlPX3mt7du4+3h9CnOlbOW7ZJraxT7eCcplGw0xsltY9M0FvHWWSmhsdj23CXc1u+/9NPaTqhstoX4Plsx0nYu5bzLtloqvZhp39aFrLc+E0Pncl9+vLysoGz505/+FEqu8zFt+MfR+gGafXkC7f6A+LhH5CWPY/Sx9WVjHFcdp4H5V9u/zJJ9xj6sINSkDqSx5LFxP+o8Mr3YXPeO4XBen4yMJ7Hb27ELcTzb96POIe7bvqsgMnke3hiYvZh2jF5Mr93eudwXyEuIyivH5ZV+HOFHKX8Y9oeTqNpZ5A/Mi9HKMuwPk+tRUEqegRQ3ZDteLA8zLingMLFyPzle6iM3ap63aWfrI7FD3cZuybLQEpve3vq+JZ1zcM67iN8eJ+nEHN5n242cy33BZWMSmPxfLjMuG/v3nDJxUtVZS4aPE5KwMboSkNtb/TNiXzPTqcnnp85TjUdODtP/I/IajR3qMvbYJPWzR7vdxvYYPYfI6+TF9b1zuS8//oa9J69rb9gTKZtQE4d+5KN/bfTFZydsp3+zT19SduCJ+PZOWZeYAHwu+dgwUXNc23+Udp3peOeY6odiizof539JBRVPYLeHc977bjrnED6L/2Yhfuu/r6QXM36XW8zwe5L9eZ+JoXO5L5BXyrRkYVhSTy+VIIoIeF++3IlFTdzwIxb7tx8VHyd/3KKN6csylvkx9T7OBsIYpDAq4qTRYkjbwjmw2HJcr399PjGMbSfr47HluYf/BqIfLnGf1z/T2k5IETa/m945EOq/tR53+N55u+qU2YkZhJWPbb3F1zmm6mcdfry8vjUT/mVtXUrdnlOyCp3RLfvdBPS5rAjk9c0JWcfDM4z/pV73nshz514TsqIt3trfjT6XNYG8AABLAnkBAJYE8gIALAnkBQBYEsiLkMskegUAcB8gL4LFlBejtgrkBcC9gLwIyAuA9YC8iCyvf/+3/3DLuLx47U9a5ZxKWUrT28eI1eNctgWW6bhqTQ5vN4sM5SprKvWjN5ptHVRY8b32gsU28nsqn3md0973A+4N5EXMlZeQQJDJwHNr6XER5SfaVp5tfPt6k8+uBby+ZPwow+YEfWgFeuccpnBGfBlTfl5/hflPB/IiTpNXc+JIomSqxGojHcevq1GysRPRiRGk6K8Cl8/+jdM6h1mcEV/GNPEXf7bvpwN5EVlevfJw5qUu/5yJ2RFMpBynL3VEvGaMVnZht8uxpc/VGzt5e7kk7U/6VoxEGG+JFUPtxe/FTPt651N9Jh7KPsFdgLyIuZlXawKafVk2uxNoYCI2Y7SyOj5Wys7GFWMfvfRV7MUQYwoi887PcmRcst76zHBdfg9gJSAvYq680uQIk7IlCEHVzmKO2y51en1lWpmXnbSyDzvO3r4WnRjOWMvbGXrxOzGH99l2re8HrADkRZwiL0LfV7ITJ9PKjjLehOP2cnsjRlNqfCzkFeve9wNWAPIisrx65RF59SeOIFwCGfnQJJd/bVTHBQHwpafYri6jGD6u9ddGm3H0xtnb12IvhjhXJbNe/F5MI+/wXcj+vM8E9417XssCeRFnZV5MWEsVJgjvY+GU0ruJvXejP8S125MEc6kyMUE7K7T96Xp4DxTH5+Dcnzv5+zH0ucp2Jr5iJ6Y89x/yJtGfDuRFzJPXQkzIOsrl3orY7BOsBuRF/Eh5ESF7e9g+nMWse78oZHjIupYG8iKyvHrlO8oLgJWBvAgW00gBANwHyAsAsCSQFwBgSSAvwrtE9AoA4D5AXgSLybtJLwvkBcC9gLwIyAuA9YC8iCwvb40Xl+Pyio+rbCu+5WJQtQq+Xic1uv7ouTVaI9gV7Y9Txqq/Fzn8+MSA/l74u/Afb5qFv/r+/H7BDCAvYqq80qMvyiu0LTynGPYJYeXtmbDq/f3rfW/ld2j33Or4fSbJS4318+szn6/5LvzV+mevgvfldX6/YAaQFzFPXjGzaCZEzWcBI/l5w/y/Lfb2z2GOvNpj5fhSXo2+Tn3+sCUvruK5x7sDeRFZXr0yJC+TTdTwBBl400M3s5JZgSNLIchwCZovxbZGcZK+kyzKZWuMk9vGpmky8+un03Y57rHYcqwGJQfdv/p+hrLMNFa8ZfVHAXkR0zKvoR98mahKOurYzqQPk0wI0mQI/uWXnaRycsfx1EKN7bZMkftxxdyLzXV9zHZvqx5kQsZj6hg1sd8tphqrF0+O1/vMcH2vX/BKIC9iqrxGf/ChbRGNvbwKk9yd4HZSyTp9lvIMkziK0n+/FdEcs2ln6yOxQ73xfYTjZduCvmHeE3mmN9bRfbbdSL/glUBexDR5pSymmVQYiqB44mQRyNKSit6exacEqKQkJ6KZpI/IazR2qHuxI36WaLf3Y0Q6Yx3e57Xb6xe8EsiLyPLqlTF5ESkjUZOSJnv4q+In/e82OaLogmz4mOpysyVCKYsEyyT8lVJMNhkzyKY1ScU4FN5kTvVDsUX987OMr2qbUPFSvfpuLJ2xpvPbvkeV8cl2JsZQv+CVQF7EvMwrESagyKC2ScATRGxPM0pfJhVal44qwwrECarbpm2hf7n8wk50Ro8rhrHtZH08dp0N2n4Yr/8EyyZvcCXP9MbKVRZWio+3rH4bIC9iurzOZqWs4Kmx6sytdZk5H90vuCeQF7GcvIhWVnZHHh0ry6ocx5nRNfegdL/grkBeRJZXr9xNXgD8dCAvgsU0UgAA9wHyAgAsCeQFAFgSyIvwLhG9AgC4D5AXwWLybtLLAnkBcC8gLwLyAmA9IC8iy8tb48XluLzECnQuaoV9vfgxrCvKbUU5sup+Hv4YH0GOVZ6jPK/QZjvnso7L284xvO9kHv6K+/P7BY8AeRFT5ZUegVF+oW3xjal7YtjZf8nK+knykmPdzp/R8VkMnov97WevfJdjk5+x4v6OQF7EPHnFjKudGO2Job+fs5HzM4C9MY7RHqsWQesNqnizKtgD8iKyvHplSF4h6+o9wvKMvOSkdyQpHlqWl2hlwsXYL3+Damjr91/6aW0nhrLPdA54s+q3BvIipmVeuz9wO3Esvf28T4jRZAL+ZZadjLUglBgCsd12n477cYXci8117xgO5/XJyHgSu70duxDHs30/6hy8ePI8vM8M1/f6BVcCeRFT5dX9gdsJYentt5NH1umzlGaYrDlzaUzG5ljtGEx9JHao29gtWRZaYtPbe1ldpncOo/tsu5F+wZVAXsQ0eaUJWmdAGTshLL39vE8LId9XUveXlJTkhDOxH5HXaOxQl7HHJr6fPdrtNrZH5xyG93nt9voFVwJ5EVlevTImLyJlJmoS0qR//q+NjgBYJku8QZWOaxs9ouIJ7PZwzr1Lc6ZzDum8t+GE/155n2xnYgz1C64E8iLmZV6JMOHypRWV7UfPE0Jsp6LlYSedpv4LXpyIWgxpW+j3Hm9Q5c+5j1ziPq9/prWdkCKUMlX0zoGrLKwUH29WXRbIi5gur7NY6V//U8aqM7rWZeZ8dL/gHkBexDLyIkIWs0gGMHusLKsSjzOja+5B6X7BXYC8iCyvXrmLvAAAEciLYDGNFADAfYC8AABLAnkBAJYE8iK8S0SvAADuA+RFsJi8m/SyQF4A3AvIi4C8AFgPyIvI8vLWeHEZlxevPWqvCYorzeUKbq+tXeVNbUSJzY/0U3P+WjF5Ds9RjTWsjjfru8SK+byqn9dm6acRZmP/O8XP5/cLMpAXMVdeb19v7mrsJBzzg3+Tz9kF/EmhOdKP4ZJV+q1xH0SNNT8KxY/zSHlxX7ku+z17Vbzs68p+QQbyImbLi1/KV/3rG56Nc56j45f+KZm0JoXkSD8azmTOzwxa4z6GP1aObR5EF/ZXx5h9c+n8dzq1X5CBvIgsr145Iq+P38wE2/419n/w+lLDb6PJ2/l/9/qRyKyAPzsPPSeRhkdi0qVYmYgx7mvfxqrPuRKcFMdQlpnGireuLgfkRczOvPhHzBN0m5fbj3nkx28/i4m+TdrSZr8fCW8XsjMZgoq1UY+nTO4oLiWPQGy3vfGB+5H9bvRic711zKC8mjEksd/tGDVW3ie/R1lvfWa4vtcveBbIizhDXvJf3yKFzg9+m3SdNhtH+pHwdjmpZJ0+Z9kwYRJnaTbGw327k9T2b+ojsUO9Fbts78urlb1JemMd3WfbjfQLngXyIk6RV/4Bq3taez94lk+vTeZIPxLeroWQJ7+SgJKSnIgm7iPyGo0d6q3YYruSFYeXMmvFkHj99sbk7fPa7fULngXyIrK8euW4vLgaMww9mVo/eCJM7F42kjnSj0TKIsF9rvA21g1uJ8aqZGhihHMT2aRLZ6zp/DY3hu8575PtHukXPAvkRZyTeTH845f/And+8AnOHPQEyZdXsURRHOlHU11mpQkqs5dtG/e588ZUO0b/slXWx2PXY2W4nTxXIsm79J/g7XmDlKaiN1aulth46+q9gLyIefJagJWygqfGypIsQvH/GHEGul9wHpAX8aPkRYTsbpHM4NGxsqzKcU62dhK6X3AmkBeR5dUr30leAHwHIC+CxTRSAAD3AfICACwJ5AUAWBLIi/AuEb0CALgPkBfBYvJu0ssCeQFwLyAvAvICYD0gLyLLy1vjxeW4vMQqci7bQktebyS2UwlLgpzV37xeqF5dHjl/nZZZMf4E3ljDtnS+vfOcg78S/vx+wdlAXsRUeYVn7cxqbtr2EeptKfBk2o7prSy/ZIX8JHm5Y+XYUuhnr0j35XV+v+BsIC9inrxixtVOijpSEBNdiczAWcv5GcMceXlj5W3vH0Zqpz4L2JIXV/EM4spAXkSWV68MyYsF1H0MpS+FMNkpG2hPKJktOKIUl58swO3ydGsU+3/Zm1D5++H2NiNzMzRLGhPeeAoSkBcxLfPanQw8ecTEr0RnJ6GF94tjTObgZ2x28spJH8VVZ3JpnPlcuB9Xyr3YXJfHCJlV35Nt65HGlE9QjUmOg5H11meG63v9grsCeRFT5dWdDHbyaIJ83kv2VGMnm6zTZ3lcmNxZko3J2xyvHaepj8QO9RJbXUJW8nKytIremEb32XYj/YK7AnkR0+QVJkP7flU9eQQshDChezH4eC2bLIVKDls7OUFN/4/IazR2qOd2/DnLTpRNYLJtCy9+r29vn9dur19wVyAvIsurV8bkRaSsRMmHJnz/r40mA2hKxbRjuG14qZ9ov4mQCLFakzeK0r9slO1E/VBsWReEMYvMy9ZdOmNK57F95+G/gTcuE2OoX3BXIC9iXuaVCJO6lWGI7VRYHOEGuEm1vG2MyrACceLqtmlb6Ptub0IlrDRYNnn8Uo6K3pi4ysJK48IbT38EkBcxXV5nslK2MDRWnaH5f3Q4A90vWA/Ii1hKXgRnNKtkDHtj1RkmZ0bX3INqZbZgHSAvIsurV+4kLwAA5BVgMY0UAMB9gLwAAEsCeQEAlgTyIrxLRK8AAO4D5EWwmLyb9LJAXgDcC8iLgLwAWA/Ii8jy8tZ4cRmVV1g7lFd5i7KtMperwOV2ol6caVeUE9uKcN5HMap1Ss4xgvPXh/X7P0IZq1jRT0UOP7RJ2/MbJvh7dFf1T0OeY/l8fr/AAnkRs+RVcCZxEJfcFielEpuemeERIzkheLLGeoz/RsdrF3XkccnK/E7/R1Bj/fz6zOcYvpOyiLUWPnP2ynl5jvIzVuxfDeRFnC+vKKpqosnJaOTCogpvHN0OkpMjxeeXBSohteVRxHcm7f6P0B4rx5fyavR16jOL8hzN+Z7aL7BAXkSWV688JS+TMRSkkLzPcrLaz7Gtvlwx/W7Y2EakPOmSBDnedim2NYpxX/YG1oySg+5fyc78Q+CTxoo3sy4L5EWcnnk1f9RaJOUyiI7fZJLiqIk7OJk2eLuQp8kQ/MsvG1dO7jhuJYxAbLe9FYL7kf1u9GJzXR+z3duqB5mQ8Zg6Rk3sd4upxurFk+P1PjNc3+sXzALyIi6Rl/ujNllGloqQS76E0pdSJv7W3k6mjJ1Usk6fpVjDJI6ZyB3ewKoIx8u2BZ2BdrK3jd5YR/fZdiP9gllAXsTp8go/aie7sRJIGdoniWpry9veP8ykaMW32zO8XQvBlaIaj5yIJu4j8hqNHepe7IifJdrt/RiRzliH93nt9voFs4C8iCyvXnlOXkTIGuQPm9vYS68oIZ1dxHb1sSZ+kIM9NiNlkeD2K7yBlYTcPW9GxUt1mU26dMaazm+Tocr4ZDsTY6hfMAvIizg/80qESZAvm/wMItzfMROAswp9v8ePH471+iX0ZSeTRKnipm08vru8gTWIyfbDeP0n+HvOG6Q0Fb2xclX8t8KbWW8J5EXMl9cNWSkreGqsOnNrXWbOR/cLzgfyIn6EvIiQmS2SGTw6Vp2lcmZ0zT2oOjsGZwN5EVlevfId5AXAdwLyIlhMIwUAcB8gLwDAkkBeAIAlgbwI7xLRKwCA+wB5ESwm7ya9LJAXAPcC8iIgLwDWA/Iisry8NV5cxuXF64rSquxU6qU/YqU5l20xplmtnQjrh0S8XOpHc8TaqLAq/Q4LJv3V6HxO3vgBOALkRcyVl5BGeMRELJJMj7ooodG2j1D35VXY2f/QqvS9Pp9FxpefsRodPA/kRZwmr2rC9h5V2RNJf3/97OIIe30+i4xv+sJzgOBJIC8iy6tXHs68cjYUsq7eoyp7Iuntt5mMI43qjaG8XVyKdkXSiiH29fquPhMPZYoAFCAvYm7m1RDC7mS1ErD09vO+1itz0pjyWNSl7F6fmSMxbN/eZ4brPZkD0AfyIubKK01Qm2mdmnlZEci29rjevhZHYrT22Xa47wWeA/IiTpEXoe9DnXnPi/etJi+uI/MCjwN5EVlevfKIvKp6uNw646+NA/e8hva16MUwUg7n6MU3MXDPCzwJ5EWclXkxYe2VnKTh8lHcF9v28bFiOxX918M6tkRneR1pmPq2joztI//AoOjHyFKOcfDWUXANkBcxT14vZEImwyK7xie43wWeB/IivoW8iG2F/UNwZnTNPSi8dRTMAPIisrx6ZQV5AfCTgLwIFtNIAQDcB8gLALAkkBcAYEkgL8K7RPQKAOA+QF4Ei8m7SS8L5AXAvYC8CMgLgPWAvIgsL2+NF5dxecm1Uvw5rTpPRa+Yz8THa7Z2nYWm2zqusEr/Dos8/RX0eFMquALIizhPXlIwSWZycWZ6VEit16Rt8VlHw0Mr6O0YZiPjy89YQQ/OB/IirpEXEWSV95sHmnfQzy6O8ip5cRXPLoJzgbyILK9emSIvKSwlsj1sJuNIA29KBT8MyIu4LPOy8hqe3DIuY6Uh5BTe8NAbg8eRGLZv7zPD9VE5A3AcyIu4Vl5p26HMy4pAxrb99Pa1OBKjtc+2s9kiAHOBvIjL5PXwPS8Zl+lJo7evxZEYrX1eu1E5A3AcyIvI8uqV5+XFdSOr9BI/tY0EV/+1ceCe19C+Fr0YRrJhzF58EwP3vMDJQF7EeZlXulkeipSDIGRjol1jwuNNqQBoIC9inrxOZEImgzelgu8E5EUsIS8Cb0oFoAB5EVlevXIHeQEACpAXwWIaKQCA+wB5AQCWBPICACwJ5EV4l4heAQDcB8iLYDF5N+llgbwAuBeQFwF5AbAekBeR5eWt8eIyLi9eS5VWoqdSL3eKj9tsbezCU7manYp+h1cdf+8dX3j7KviuQF7EXHmZR2TkwtD0KJASGm3bnmUM7aVgouj679YiibUWhD60Kt/2MRsZX37GqnxwDMiLOE1e1eTsPZ7T2B+E13rYm1D7NXj7KvjOQF5EllevPJx55cynI5lAc7/MSDyxtKRoMxlHGnj7KlgYyIuYm3k1Jv/exGzul3KyUmBa8uK2UoZWGmJ86vLW68PjSAzbt/eZ4XpH8AAIIC9irrzSZLSZVDOzSjT3j2RedhtjRSCPtXF6+1ocidHaZ9u1zgWAGsiLOEVehL7n1MqQMo39Smp2shNN6XHb1eTFde9cAKiBvIgsr155RF5VPVxaGUGRfPRfG61w9v/a6AvRZjHyWC9Oa1+LXgwj4nBeXnwTg0WMe15gEMiLOCvzYsI6KzkhQ6Yk7ovZyZoEl4sWE8cXx5q+LDrz60jD1PH2VbACkBcxT143Y0Img7evgrsCeRHfVl7EtsL+ITgzuuYeFN6+Co4CeRFZXr2yqrwA+K5AXgSLaaQAAO4D5AUAWBLICwCwJJAX4V0iegUAcB8gL4LF5N2klwXyAuBeQF4E5AXAekBeRJaXt8aLy6i8tpXpppRV7q31TLyeSh9TNdlbmS/Y1naFY+6w8NNfVc/fhfxuADgC5EXMklfBPPaSCSve37/eq5Xkpn14tEYsDnUk9PneWDz60Kr6xnin4cuLBotV9eBhIC/iKnnlZw31M4eMbW8n+PgjOnXsEfzxzkPGN33heUbwIJAXkeXVK8/LS2QZVXbkTOi8P2Rdo4/o2EzGkQbengq+CZAXcUnmpSapJ5mGQMzkDvezQjsTP8Bx7Ct1pDREbHVp6ozX5UgM27f3meH6qJwBKEBexBXyspdzQUKbpER7m2m5mVcdP2JFINvZY3r7WhyJ0dpn2+G+F3gMyIs4X15cT1mVKn7WokVnYzHeNoa3ryYvrls5A7AP5EVkefXKU/KS97A25I14b0KXerxUbElJMnDPa2hfi14MeT5EuKT04psYuOcFHgTyIs7OvFrrmcqlo5VC2icndZBBydq8eEw7a7N91GMMsXk8rmyZfgw1Rrw9FZwM5EXMl9cLmZDJsMiu8Qnud4HHgbyIbyUvomR0j8CZ0TX3oPynDQAYA/Iisrx6ZSV5AfATgLwIFtNIAQDcB8gLALAkkBcAYEkgL8K7RPQKAOA+QF4Ei8m7SS8L5AXAvYC8CMgLgPWAvIgsL2+NF5fj8oqPymyrzbdFo7yGylvb1Fmp3llz9dx6rhHMuJ5AjnVbzU8lPw3QegphHvJcyufz+wVnAXkRU+UV3gJhVqjTto9Qj5PmrXq5oJhY9i0S27GGCSvp95kkLzlWdT4y/tmr7WVfV/YLzgLyIubJyzycXJEmzacVj5hMzecKNfoZxrOQk/xx2mM14jj1OceWvLiK5ytXBPIisrx6ZUheNmuqKJNGX67YibV3KSMnvSNMIUB5iVYmaOzv/Z0u5bbxxji5bWyaxsWyTdvluMZiG0EpuK3OMvezyTQmvM31xwN5EdMyr91JMDiZhEj8hIDbi0lvMgeWSn2c7U9O+thfLczYbssEuR9Xzr3YXPeO4XC2z3bbQhpTPkE1JjkORtZbnxmu7/UL7gbkRUyVV3cSmEmzScdOpkSI1xKR7EfW6bMUaJjcUYT++7WI5rjtuEx9JHao29gtWfaytExvTKP7bLuRfsHdgLyIafJKk7KWTcabNNzebi/4f1Hk9loI+b6Sur+kpCQnqOnvEXmNxg51GbsnCtvWozOm4X1eu71+wd2AvIgsr14ZkxeRshHlG5ro8q+NZdIQQQIic/mkttv+KLehDIXjhP9PSDEJeSw5Cwv9tCZvqx9vkudxHokt6nxcy+7hHHqX3UxnTOk8tvDhv4U3LhNjqF9wNyAvYl7mlQiTOV9OUdkmhp14kZBdqYkljm1M9PoveHHi6vZpWxiD/D+79cah+41hbDtZH48txxrPtfTDZTsPKTYpR0VvTFxlYaXYeJvrtwbyIqbL6wpWyhaGxqozNP+PDmeg+wXrAHkRS8qLCFnMIhnD3ljDsottP2dG19yD0v2ClYC8iCyvXrmjvAD4yUBeBItppAAA7gPkBQBYEsgLALAkkBfhXSJ6BQBwHyAvgsXk3aSXBfIC4F5AXgTkBcB6QF5Elpe3xovLuLx4fZK3bsis6E54a4zCtrxCXJS3j49DsTPnrwXr938EOVb5PeQV+LytfoRpJvJcyufz+wWPAHkRc+X19tV9U2omrDqXj9VY7DEHYmcuWYXf6f8Icqz0GW9bBXtAXsRseXXflJrgLIP/Nc//W2OPGY+daceeSbv/I7THasRx6nOI8lzMeeH5x9sBeRFZXr1ySF70g9eXGnaCiwnZzI7sMaOxM3LS82eTsYkHn+UlWpmgMS7etsqfiUuyWHAEyIuYnnkdmgitiWuOGY29wdvN63GEvVgqSmYBG1dO+iguKaZIbLe9AYL7cZ9L7MXmuncMh7N9ttsW0pjyCaoxyXEwst76zHB9r19wJZAXcY68uJqFobfbSySuS7FEvMmzH7vA2+Vkk3X6LLOIMLlTdrTFMnFZuO7ktf2b+kjsULexW7LsZWmZ3phG99l2I/2CK4G8iNPklSagflMqf86TWRY7eW2skdgS3q5jZmkqeSopyQlq4j4ir9HYoS5j90Rh23p0xjS8z2u31y+4EsiLyPLqlcfkRYQJzHJK2zkTqe6dZBGlasCbPDuxFY4AuD3etqq/65AZeuMyMYb6BVcCeRHnZV6RcFmYttf3cCL1pWNvAhZkbIvKsAJx4up+0jaWIN622vjM1Y5QwUuAvIh58roZK2ULQ2PVGZr/R4cz0P2CewB5Ed9WXkSd0d2XvbGGZRfbfs6MrrkHpfsFdwHyIrK8emVVeQHwXYG8CBbTSAEA3AfICwCwJJAXAGBJIC/Cu0T0CgDgPkBeBIvJu0kvC+QFwL2AvAjIC4D1gLyILC9vjReXcXnx2iNvTZBZrZ3w1w+1YkTi6nO5CpzaiqIOCyvJ+2uhzl8H5p/7I5SxipX75pzj95P3xXNvPdUwD3mO5fP5/f5sIC9irrzevp57k2qO4U143seTsp4omjS5w6MvHXldsgK/NcaDqLF+fn3mk+Lt4hxZGLWLz14hL89RfsbK/DOBvIjZ8nruTaqxLb+or/pXOzxf13oWz4P3t+VV930Ge2Mcoz1WfY6f9L35zc58NlGeozlfPBN5GpAXkeXVK4fkRT9cfclgJ7D4F7nKfnJb/l8pnnyMjGXjWmwMicwK+LNzyZnGFS5v86XY1ij2/fI3rSo56P6V7IayzDRWvIF1CSAvYnrmdegHbSdmaasugbZjbNwyWf13grXkZfaZDMG//Kr7LpM7ikMJI5DGmM+X+3HH1IvNdX3Mdm+rHmRCxmPqGDWx3y2mGqsXT47X+8xwfa9f8AiQF3GOvLiahaC320ugMBG3SSjaCskVmchYpr8K3t+aOHafrNNnmS2ESZwF2eibx+r2ZdrZ+kjsUG+cRzheti3wd6bl6rcr9MY6us+2G+kXPALkRZwmr/DDZenYH3eerLIIcWxt0w9f3UOzsWR/Ft7fmPTOvixVJVclJTkRTd+PyGs0dqi3zoP2ulmi3d6PEemMdXif126vX/AIkBeR5dUrj8mLCBOU5ZS2c6Ygs5pAlhx/NjFSZqIvoVoTxdKbOFIWCR7rEm9a/Szjq9omVLxUr753S2es6fxKgiwzPtnOxBjqFzwC5EWcl3lF4v2ZuF1fyhTKpaONwZNGCshOFJ3B6di8v/2vvsqwAnGC6vtIaRvH33kbqh2PK2NVH49dZ4O2H8brP8GyyRukNBW9sXKVhZXi4w2sLwfyIubJazFWygqeGitLsgildZk5H90vmAvkRfxYeREl47s/j46VZVWO48zomntQul8wG8iLyPLqle8qLwBWBfIiWEwjBQBwHyAvAMCSQF4AgCWBvAjvEtErAID7AHkRLCbvJr0skBcA9wLyIiAvANYD8iKyvLw1XlzG5cVriLy1PWbVdcJfB9SKEQlrndRqbmorSj4sxE7bvBX9mfPXefnn/ghlrGJlvjhnJn4/eV9cz8XfRe87eB55juXz+f3+bCAvYq683r5e/iZViv2x9d9ow1yywr7T/xHUWPEmVQB5BWbL6z5vUmXaE6ju+wxGxrhPe6wcX8qr0depzxjKczTni2cbTwPyIrK8euWQvOiHqy8Z7AQWQqmyn9yW/1c+xpKPkbFsXA8bJyOlxp9NxsKTLo1LXoKWiRj7xptUe5+JS7LbnwnkRUzPvA79oO3ELG3VJdB2jI1bJmuRSEFLVMLHivYmQ1B9b9R9l9hRHHVfaYz5fLkfV6a92FzXx2z3tupBJmQ8po5RE/vdYqqxevHkeL3PDNf3+gWPAHkR58iLq1kIeru9BAoTcZuEoq2QXJGJjGX6U7RkkuFj5aSSdfoss4UwibMgG33zWN1Jasdo6iOxQ70hgHC8bFvQ4u5kbxu9sY7us+1G+gWPAHkRp8krCeT6N6mOTlQthCxVJVclJRnX9P2IvEZjh7oXO+JniXZ7P0akM9bhfV67vX7BI0BeRJZXrzwmLyJMUJZT2s6ZgsxqAlly/NnESJlJySB6EyXBx3izWeEIjsca/gIqJpscbziXVt/xHOpMz7YT9UOxRR1vUgUE5EWcl3lF4v2ZuF1fyhTKpaONwZNG/sttJ4rO4HLmJLfl7RaVYQXiBNXiS9s4zs7bTu14XBmr+njsOhu0/TBe/wkpdClNRW+sXGVhpfh4k+rLgbyIefJajJWygqfGypIsQmldZs5H9wvmAnkRP1ZeRMn47s+jY2VZleM4M7rmHpTuF8wG8iKyvHrlu8oLgFWBvAgW00gBANwHyAsAsCSQFwBgSSAvwrtE9AoA4D5AXgSLybtJLwvkBcC9gLwIyAuA9YC8iCwvb40Xl0fk5a/x4TVGaYV2KnqF+/H9vWVE56/hMqvJn6CMVay6N+cX2mznHtdqtZ5YmIc8x/L5/H7BHpAXMV1eYTW4fNwlYyd7ktE2Qw/uD4+rNBZcXrJ63o73QdRY8ZZUMAbkRcyWF2cI/K9y/t+CM9nVBD2632mfqPs+g3b/R2iPleNLeTX6OvX5QXmO5nzx3OJLgbyILK9eGZeX+Be5yn68yR4vk+IcOLifJ4+bXcmsQB6fEMeFy9t8KbY1iv3gLam9z8RQv+AsIC9iaualftB2YtpJwki5jOwvE7j9rz63KxmLlgBXjcwCsu/YT5nccQx1dpTGk8+X+5H9bvRic10fs93b6p6f/V69fiWx3y2mGqsXT47X+8xwfa9fcBaQFzFTXvYSKEzEbRLaHz8jBXdgv7qctNhJJev0WWYLYRInGbYmabMv087WR2KHeuM8wvGybUHfMJffUYveWEf32XYj/YKzgLyIefLiH3eerLIIcagfP6HEcGz/6L0iJrdVx6jYHYk+Iq/R2KHuxY74WaLd3o8R6Yx1eJ/Xbq9fcBaQF5Hl1StD8uJMoboHwhO3dVnIdTsJj+6X9YyTEbBMwl9AxWST4w2yycfYuPEcalF2xnMotqjjLalgEMiLmJV56UuZQrl05B+/zMjkZGJG9uttIbYzgeqsLE5QfR8pbeO+8JbULTbekroGkBcxS163YqWs4Kmx6sytdZk5H90vuB7Ii/iW8iJKxnd/Hh0ry6ocx5nRNfegdL/gFUBeRJZXr6woLwC+M5AXwWIaKQCA+wB5AQCWBPICACwJ5EV4l4heAQDcB8iLYDF5N+llgbwAuBeQFwF5AbAekBeR5eWt8eIyLi9eZ5RWaYfiLGKUK7mpVCvy1f64ZimsKRLH5NJfzX8WZpX5E5SxitX4VOTwQ5vtnMv34Z37PPxV9ef3C44AeRFz5VUmdph4cuV4EJOc+HHS6kdjxCJLqn8oD+2I45JV9ZPkpcaKt6eC40BexFnyqn/4zkSUk5Xl1pVPXxwsy/Mzg/4YRmmPleNLeTX6OvW5QnmO5nxP7RccAfIisrx65Wl5mYyiIP815/a9SxMbXyLjOKIUYlSXoVujGBtvT+19Job6BVcAeRFnZV7qsrH5o7eiKRO2bMvYCSfhfUKOJkPwL7/sJJWTO46jFmlst50X9+NKuReb6/qY7d5WPciEjMfUMWpiv1tMNVYvnhyv95nh+l6/4AogL2KuvKJ4YhE/8qHMSxDaW+HYiSSxk0rW6bMUZ5jEeYyNSdocrx2DqY/EDnUvNhGOl20L+oZ543tT9MY6us+2G+kXXAHkRZyVeWliJlMlFk1J8C7KRtQBvfi8T8fJ95XU/SXVn5yIJvYj8hqNHer+OTN+lmi392NEOmMd3ue12+sXXAHkRWR59crz8iKqSyxuL7KJzw9xbJRdyTSYXnwnI2CZ4O2pIpasx/PbZKgyPtnOxBjqF1wB5EVck3klwiTJl1XeZWHZV9//6cdXGVYgTlAdJ23j+Hh76hYbb09dD8iLmCevF7NSVvDUWHXm1rrMnI/uF7wWyIv4NvIi6vtk9+XRsbKsynGcGV1zD0r3C14N5EVkefXKKvIC4KcAeREsppECALgPkBcAYEkgLwDAkkBehHeJ6BUAwH2AvAgWk3eTXhbIC4B7AXkRkBcA6wF5EVle3hovLofkpVbQx/VHYX3Qtq2UsMLcae+xrYkKq9HvsFDSX4XO51o/UgTAfCAvYpq8gliEgKjefRPqbvsEtzu8Gt30NR1fXjRYrEIHlwB5EdPk1XzGLmOEsts+Uj+zOMKr5MVVPP8HzgfyIrK8emVIXmES9y6brFD22jM2k3GkUb0pNMbdLke7ImnFEPt6fVefiYcyRQCOAXkR0zKvQHmzQu0MKwOm157hY+S9MCsNIadw/yy39fryOBLD9u19ZrguxwzAfCAvYq68EuF+lhWSneQCtz1jRbAnjda+FkditPbZdrjvBc4H8iJOkRdRvzXBTnKN/5YFPmY1eXEdmRc4F8iLyPLqlSF5HX0T6m57xmYxe9Jo7WvRixHHtPk0XFJ68U0M3PMCFwB5EfMyL57E8f5VKG4WZUXRax/Rf23sSMPUt/VlHLf5l81+jCisHAdvGwX3AfIi5snrJCZkMiyya3yC+13gGiAv4vbyIvz7YaNwZnTNPSi8bRRcBeRFZHn1yqvlBQDQQF4Ei2mkAADuA+QFAFgSyAsAsCSQF+FdInoFAHAfIC+CxeTdpJcF8gLgXkBeBOQFwHpAXkSWl7fGi8u4vOxq9Rp/HRQf19pu4qUHuLdV753Fq8+tDRth/3xHkWPdngygkp8s4G31o1MzkedSPp/fL3gUyIu4TF5hpfz713u1Aj0e9yafIwyYeEFc+tjP98bi00ueL9w531HkWOlzeZusjH/2yn3Z15X9gkeBvIir5JWfUdTPKjLpuE8rHDuJxh/xqfs4g/75jtIeqxHHqc9MynMx54VnNW8J5EVkefXK8/ISE7HKispx+jJFxAtZ1+gjPnLSO9ITD2nLS7QyQWO/7+90Kbf1GePktrFpGh9LN22XEhqLbQSl4LbinIeyyTQmvBn22wN5EZdkXmoC2Ak7MInMBAr3iMLk9Prj48SkN5kDS0XJLGD7lZM+iqvOjmK77b4b9+MKtheb694xHM722W5bSGPKJ6jGJMfByHrrM8P1vX7B1UBexBXyspdGQT4mG9l2b7IR293Mq9WfnWyyTp9lFhEmd8xQ/Hd1EW7fjO3f1Edih7qN3ZJlL0vL9MY0us+2G+kXXA3kRZwvL96eJ7EsQijVZOHsqDehmF5/WghZnkqiSkpygpq4j8hrNHaoy9g9Udi2Hp0xDe/z2u31C64G8iKyvHrlKXlxBlLdM8mC4s/OcWHys+DK9nipKCdRoz9PABwv/KVTHC/HFfrLx9i4cax1JmTbifqh2KLOx9XXtJFwDvZ7tHTGlM6jJLycGXrjMjGG+gVXA3kRczMvnV3xhK/v3UTKpaOdcJEoK7M9TDgd30NlWIE4cbUY0jaOpZZweOPR5+ZLV9bHY8uxxnMu/XDZzkOKTcpR0RsTV8X3hzfDLg3kRcyT141YKVsYGqvO0Pw/OpyB7hfcB8iL+JbyIkpmd3/2xhqWXWz7OTO65h6U7hfcCciLyPLqlRXlBcB3BvIiWEwjBQBwHyAvAMCSQF4AgCWBvAjvEtErAIC78PX1/wGkbNYBAC1kzAAAAABJRU5ErkJggg==;clipPath=inset(0% 7.74% 38.67% 1.46%);aspect=fixed;imageBorder=default;" vertex="1" parent="WIyWlLk6GJQsqaUBKTNV-1">
          <mxGeometry x="40" y="340" width="176.9" height="150" as="geometry" />
        </mxCell>
        <mxCell id="kvc4LLjoX2ohHxMDiTU2-52" value="" style="shape=image;html=1;verticalLabelPosition=bottom;verticalAlign=top;imageAspect=0;image=data:image/png,iVBORw0KGgoAAAANSUhEUgAAAuoAAACECAYAAADGBg6lAAAAAXNSR0IArs4c6QAAAARnQU1BAACxjwv8YQUAAAAJcEhZcwAADsMAAA7DAcdvqGQAACKKSURBVHhe7Z3PiiXJdYfrPfwEXk/1QNfCC+3lBxCIaXmau/UbeIRAjWFoT2GYlTFoJZBaBqOma2UPaGEQtmgtZjFW18oI2c1gm5YW3oy60nEiM/KejIx/mTezbmTW9zG/qXsjMyNPnIjI+N2svNUXH/75XzYIIYQQephq/vD3CKFKdREqRAghhBBCCJ1XGHWEEEIIIYQq1MXf/N0/Nf/5X29PVs///WPT/O9fDCVlAAAAAABQDEYdAAAAAKBCMOoAAAAAABWCUb8n7u7eNl/89Ivm7d1dV7It7u7eNM8vL5qLi1ZPX22zHXO4e/W0b/fF5fPmTWEflubs7s3z5vLiafPK1Ht396p52r2eytpxak6Jcw/MzTUAAMAUqjfqd2/eGxPz3iyIJljR0/fdlqZ5ZV735Vbve+Pw5rk5zihE6jhhuP198/zNna1veEyr2Dkc1qB//knz+RdfWqP+5RefN598XmbYY3He3b03Jmkco8PPmTNed6+k7Liv26/MmImZuxycx9EazbHRG5gZq6Gx84+7ePqq2xInV+erp3rbcXt73DF+d+4+1kgbNHafyQY4nDNNe+4uzgUM8JJxOhPv56MkzmFftPXbflCx+fX7/eDGxJvnl6quoy6fv7HbY/2X6/foeLHt0+WR/EzItcznUR5lTppy+/PyvcqLmafm/TFOPd/bOd/Gmb4W5K51IXJtj+XMEez3UZ2iLteZOZ3CjR85bpTbwZhItSHct27M9WNJnatXwTULAOAUqjbqzkiGLqJCaOFz5Ix66Di3OOoPAz5uYSxdSBxvjUH//ve/bwy7ylWGVJwSg8uL/RDRLfJuW7+4qBzanJj9XF7k/VNzjtyHDSFm5twCfDyfLI7d4uyZsnbh6xZntd8UUnUKsgCHcib7XZr4nbF78/ypaXv7PtUGzRRTJsRy5tOer8uLjaXcqIRYMk5nTvycpuLsDU3AxKSMesmYCJ031X+pfhdi46Wt8xiLHWeBnE7Jtcxnf65NMerhONv5foxzWE/qGhkj1/Z4zuL97gj2X2ZOxzjGOR6jbSzHOmL9J4S2tTGZsaLqjc0FAIA1wagr3PlSC8RUo37qHfVgnN7irOO2C7U5TiP1SC5cTp6b92/ECKiyHO0iNTZRdpHzFmZZyK0Bjpgyu63AlIVI1SkkjfrzV6btcqw5xrxuy94k26BZ1ADb9qs7c50x6Y2MtLPbpuPwjwuP42XitHlR52rV7peKs40xbLTWMOqp/kv1u9svPMecCezijLRpSq5Dc21po+5fw1LXyBi5tkdzluh3R6j/cnM6hx5DMew5IrH54+fY/mG9JecBAFia6h99scZTfmWrFjGHLEJ2m5PaJ2VAY8fZcwXOo5lq1B1znlGPxekvznY/I/fab7dtlymXn7LIyE8x6e71KUY9ZGjdwucvwILe3+5nGubvkyJXp7w+mspj3XKutr1PTdufdq9bw5Zqg2aKKRNiOWuNgDIAyuC4be7c7ba2Dv3a36ZZKk4hZk5ScdrcRc6fMupCbkyEjF6q/+RnrN+F2Hg5mrX2PHY/bzwIU3Lt5pq+hohBt2Vi1PVc7+TyMudaIMSOS5FreyxnqX53hPovNafv3n7RfP7JJ/a3kVo//VIdHxmjGjceHP34VfE7+nN79br3x7aH5wwAwJJs5suk1mx6C40sQrGLc8qAxo6z51jJqM8hFqeLweYjkJOYUXf1+Xfgz2XUHXZ/Wfgyi7xQYtRDOXPlraFsjYIzbKk2aJYywCOzqmLyjYw2C6GYQu1dKk5Bn1+TjTNy/pxRd8TGRMjopfov1e9CKH/CwMglxuaUXOu75/LIWZsrZdTVPJY5PuWOugmxlXf9ih2XItf2WM5S/e4I9V/pdSJGbAw5bP3eOTV6u33dzbFcve0YjdcLALAEmzHqgluU3IUztQjNMertXa20Ca/JqIuxcqbbtdWZco3UI9tD9TnzkKNdtMZmzhkijVtkS02Z4MxBrD8duTpjJiJU7hblVBs0GPUjqTht+yIG5tQxETJ6qf5L9bsQ2i6052lz0vZP2DjOMeoyR5+beStmfSmjHroWCLHjUuTaHs1Zot8dof5LjYlT76iXmOlje9t6+g8oWoE+bnMTnjcAAEuxLaPeLUTuwphahGYZ9W5xTBnX2oy6YM15F5OfI/0+VN+pRt1frPR7fwGWBT5q4AoXvVydMRMRKneGLdUGjS0PLdhf/nRkHoSSnDmT4drgGxltfu47TofkbvShJRWna5NnnoVwG471aELtCxq9YJ3t+1S/C7HxcjRv7baY4bPnCuQ6hDPj1qCb/WU+ukfQljDqgr4WCLHjUuTaHs9ZvN8dwf7LzOkc7rx+TCUmXfDP74jV67BxFvY9AMBc6v4yqSxe7le6nfRFUxah4fbjAtUuWHpb4nlPdZxb+PQ2t2AJNRp19959MBnmrd1P9tELv+NUoy60Jk0WV5EyTIPy4aI22mYUWxA1qTqFdpHXkoU6vODaujpTEWuDJmbK3F/0mWKAWxPRnu/pq6N5aY2Mi2Mcy33HKbTGd3jObJyJ7brturxkTISMnhDKS8xo6X4PjxfXPhVb155TfssS/O2XmaMSX4lRl32P6j6YZ64FqWtdjFzbYzkT3L7Hba4v/HJRl2u/30vzGayz7e/hmPW2+cdFzuePH/c+dxwAwJJs6o46nI+cmXsITDFlwrlytpU498DUXAMAAEwBow5FYOa2Y4Ax6vcHRh0AANYEow5FtGbu+Gtf9+vgpYn9OrvVeczk4Ffzkw3wMf61cubYSpx7YG6uAQAApoBRBwAAAACokOWN+gJ8/fUfEEIIIYQQetDCqCOEEEIIIVShqjbqAAAAAAAPFYw6AAAAAECFYNQBAAAAACoEow4AAAAAUCEYdQAAAACACsGoAwAAAABUCEYdAAAAAKBCMOoAAAAAABWCUQcAAAAAqBCMOgAAAABAhWDUAQAAAAAqBKMOAAAAAFAhVRt1hBBCCCGEHqow6gghhBBCCFWoKo06AAAAAMBDB6MOAAAAAFAhGHUAAAAAgArBqAMAAAAAVIg16v/8L//+oPT27X8jhBBCCCFUtXqj/sc//vFBCKOOEEIIIYS2IIw6QgghhBBCFQqjjhBCCCGEUIXCqCf0r//2ZbAcIYQQQgihtRU06t9887L5+PLT5qtvvjm+v7hoLqw+bl5myrWix371aXMZOWZNlRp1MekYdYQQQgghdC6NjPpXn162ploZ9ZcfXzQfv2xf2+0fv0yWa33z8uPB/pefftW/dsfep0qMujPpGHWEEEIIIXQuhe+oy93uzqi3d8S9O+F2W6x8aL5DRj22730oZ9S1SceoI4QQQgihc2m6Ue/fx8o9o/7NV82nl8NHX9a8m/5Xz/62+ZM//bOBpMxtTxl136Rj1BFCCCGE0Lm0ulH3NbwjP352fQlps65Nuog76gghhBBCaAta/dEXrfbu+mXz6VemXu+RmKXvsItB9026KGfURRh1hBBCCCF0bmWNurzXRnrql0m1tDlf26jHVGLURRh1hBBCCCF0To2Mev9XXzqJgW7vqo8fU4mVh6Tvprfv1bGZO/FLqtSoizDqCCGEEELoXAreUd+zphh1hBBCCCGEziWMOkIIIYQQQhUKo44QQgghhFCF6o36Q1IoEQghhBBCCNUka9TfvXuHEEIIIYQQqkgYdYQQQgghhCoURh0hhBBCCKEKhVFHCCGEEEKoQlmj/pvf/AZlFEoeQgghhBBCa6k36hAHo44QQgghhO5bGPUC3F11NF2hQYcQQgghhPIqNuq///3vZ2vrYDjnibwhhBBCCM3XJKP+rW99a7IeolHXH1JiCh23N2HUEUIIIYTmC6NewByjHsqFE0YdIYQQQgjldF6jfvtZ8/jiorkY6HFzuOm2n4rU//iz5rZ7O5e5Rl1++nLloeP2Jow6QgghhNB8TTbqIdOZex8lYKRvbw6LmGuLq/9Ewz7XqMck20PH7U0YdYQQQgih+arOqDfNTXO4OJj/L8CKRl23M6Rvf/vbwfKsUX/9rHkkv1l48kKVv26ePTJlj541r/W+lQujjhBCCCE0X+d/9MUz0IM76mb74XH3SMzjQ/NZt+PtZ4+Pj8lIoV/PwKAfVB3tPqPjM4QM529/+1trxkNt/vnPf263Hw6H4PasUX/0yEiZcmfeMeoIIYQQQg9G57+jbg2zkjHWN9Y73zafPX7cm/OjGVd33O3xsr/b1uHe+z/txsDxtjxOyHCG2uvKRM+ePWu+/vrr/r2W7OfX18sa9WfNsyePmmevu7IXT5pHT4ww6gghhBBCD0Z1Pfpye2PNuf0yqTXRnom/EOMuBl4MvdwNvzEmvNu32KgHjs8wx6i7bfq9Lvfr69UZ9ddizp+9tmUvxLS/6Mq7fZ7IozCSk0dPekP/+tmjLk+PmifdsaEya/z7nJryF8dzH+s1x804nxZGHSGEEEJovqp79KW5OTQX4tRlW+put5j6gzzCMvWOeoc+viuKkTPqfntj25yk3K+vlzPq7ue7F8Yk6/fyvLq62673u3jSvHBl9nWorDvOaVDvhTHtneGedb5un04YdYQQQgih+ar4y6Ttne/+GfJ+X9nuHolxj8e0x/S7uufcg0Y9dLzdECVn1ENy2+SnLyn36+s1MMjG/NrHXl4cy60p7u5u9xIj7b5wKne3X5j9pL5QWXuOJ3LH3B3v6rXn9eKYdL6hMOoIIYQQQvNVoVFX5lkMePDLpMaId6bxcVc4+ILowTPqxpzbx126u+eh41PkjLr81Ipt0+V+fb2UYZZHS+SLpfbRlIFxDtwZd3r9wj7ffqH3GZTJnXB5lMa7c67OOyqfer5OGHWEEEIIofk676MvGyFn1ENy23QunKTcr6+XNszaJPfl7Z3s/pnwvrwz4P2ddHkdK9PPmT9p76i7ep2Blzv5k8/X1umEUUcIIYQQmq9JRn2utk7OqIeMuPsZk19fL23UY+VituWxE/mtwODLnccvibovombLjMHWXxrtH3MZlJefTwujjhBCCCE0X8VG/SGTM+ohuW3+cVuR/NWZ4T+6NF0YdYQQQgih+cKoFxAz6rF/8Ejk/mVS/7iaJX8G0t419+6czxVGHSGEEEJovjDqBcSMeon84x6SMOoIIYQQQvOFUS8AwzlP5A0hhBBCaL4w6gVIfhBCCCGEELpPYdQBAAAAACokaNRf/MNLhBBCCCGE0BkVNern5He/+133atvspR0+e23XGmw1V3vu4xrbtpd8b60dtce75XGx1dhrjZt87p9YrjDqK7LXAcrEK2erudpzH9fYtr3ke2vtqD3eLY+LrcZea9zkc//EcoVRX5G9DlAmXjlbzdWe+7jGtu0l31trR+3xbnlcbDX2WuMmn/snliuM+orsdYAy8crZaq723Mc1tm0v+d5aO2qPd8vjYqux1xo3+dw/sVxty6jfXjdX7l/O7HXVHG5S2y/67bfXh+P2Kznu1m1orq6uG/tuVIfabyJnaYep51qHq9smb2/0sYfhvoWkJl40NkG3y2y7du11mNgkD3NiqpVZufL6zHFz6Pb11Q+c5ciO3cE5b5vrK1M2mEOJcajHgZKtsqT+E5ndJ65cScK8vbkejnODzDO/LEUsplyfp+azHKvTeHt9ZfY7NMeim+bg+inXZ4Vkx81A6ppnOMd8SMYbHa/edc2QvO6dwCr5NCTXgYL2ljB3TFtCa0FJm3W7jK4O068Z0Zwb0teHzPzR8ZtjR+tfhvRYKJi7gZwm+6K03gxrxN0e28XZE1qHVJs6DQ8x1+7BNfG8xHK1PaPudaKdmLpjIoPILlJmW3+9ufUWqVgdZj/p/KvBKCnjLO2QwTiIX9VlB7wZlP2xsr83AQqItSsZmzYFgj33cILcHMyF72DyMCPXtTIrV4n+b5F91724pMfu1TA+25dq3PnvBd2mVPtK6j+R5fskP7ZzRPPdE+jzzHyW9hznkixiktdInKEcJ9scJj1uhnXpa9655kNRvP75TWx6TUhf905jlXzm1oFMe0uZNaY7gmtBps3SrivzoaNvl0GM9ZQPbkIs7uwYTc4fb0zY/aeN2eRYKJi76fU10BeF9eZYJW67X8E6FI21M/Wy/8xrxxrEcrV5oz4YYNGOaRep4PgU9HGhOpIdHudc7biWge1GXl9X5Fi5aC9yIZuQ4yByvLTf5CG537ZYJ1eBi+rC5MaujLE+flkg5ULqYk6OQ++1T0n9J7JKn8g8stulHu+uTQHRfPf4fR6JV8/nPib7xs6rG23e9b65PiskN26Gdbk2nW8+FMUbOn9flon9RJbPZ8G4Sba3nOlj2iExSnk7Zvtzzm7zNMJxZ+rvYpt1zSskNxbSczeS055AXxTVm2eVuNWxfZ+YMRxah9KxBtp9RmK5ehh31HMdprcH953XmWdrh95Pl4XaECtPEGyXPmcQmXDGwFybS2poJzneztblLrg1MCtX2Vyuf3HJjl0Zr10nyR2P6xsVs9tHtyP22qek/hNZp08kzu4OTb/qlBPNd4/X5xJPdj6rY0w+bVyyvYtvcMfdtU+3U78uJDtuurdCf83LnScbx/z5UBRv8PzdObOxncbi+ZRtuXETPH56jiePaYecP7QWBOIqHkMTCMadq99t1/sNjsmsfwVkx0L03AZ5n1xfA31RUm8Bq8Tt9kutE35dQeZfO9YglqvtP6Ouf9UV2i6dkOswvT247zzzeM522F8X2fHdlUWPXegCnItNkF+hmrja9gzzKaah8w/2dW8gNs6sXGVzuf7FJTl2B+PJxDJ4r/YxL0fj0G0PjW+3bVBfoP4Tmd0nsZgddp/p1wkhmu8er8+j8er9jtet4/zq8qm2WVR9wT4rJDlu/Py5a17uPNk4vNxMIDvO/dc9Xf4W/AAZYvF8RrepHKbaO6Ghk8d0R3QtmNJm+WDa7zOtf4Jxp3IqqO3R+ZNY/0ooGauxc+fX10BflLSpgFXidvv1+3fXNX28vHZjoJc/3uZfO9Yglqtt31G3z84dO3K03RErd/idO9p3XmeetR0Ss7x2ZfIz1IZYeYJgu3Kxecgn4eMFVBYBb0JNqKtmZuUqm8v1Ly75sSt9ZmKQOxoycHXMg/gjF9B+u0dJ/SeyXp/IHTOz35LXih6vzyWegvncLnTaZLnXgfr69gX6rJD8uOnQ17zcebJxeG2ZQFG8wfN358zGdhqL51O25cZN8PjpOZ48pi2JtWBOm2PlCYJx5+oZbM/Pn+H6V0bZWAidO5HTnkBfTGxTjFXi7veTfUzc2XUoRqDdZySWq+0/oy4D3s5UQ7Rj3OLUvfXJdW5Rh485azvsW/MJtH9mK3KsPm8h4XZlYhuhJojEPYhhal31MitX2fG2/sWlZOza8WXaYbtOx5wch7ZgsH1ASf0nskaf2MdeujEscS8zpzR+nxfOZ7uAHdpFsCuS+OyXs/R+uT4rpGTc9PSxnm8+FMUbOn9ftu61avl8FoybZHvLmT6mDXIePS51vHPavFjcmX72zpOfP9PHbOlYGJ07ldOeSF9MalOYVeJWx9rjTHk7DFSdXv1h5l871iCWqwfyZdK2M+XT2PHxEjkucAHw67Cf2qd/OUw4azsssk19CpWLmpyj20H+rNx9/dUXu039qSx9R8FONC+IUNkWmZMrszHa/y1qrKxE0diV16ExmxuHqfaV1H8ii/eJm1fdW7Pz5GtGNN89gT4vms9d7nUw9jjvr3iM2uf1WSFF46bn2KZzzYfica7Pb2LT/ZuM/URWyWdu3GTaW8qcMS1xR9eCTJulXYO/+mLbvNwYnjZGh+e2x0bWv1LKx8L43Pn1VeXRkam3lFXi1sfKaxe7X56NNdDuMxLL1Q6MuvcpSzrak+vswd9ANRNs8DdQB52uj1f7TeSs7eiwFwhVZr984Y41F7WuyklE22WIxmYikOfQXFuOz+SHPt0bgjnaHrNyFer/wSq5/sVl2tg16PLcOAy1z2h0AdbEymewWJ8YXV3fNDfmmPH4NX0kXxzr3uZIxdQS7vP8fG4/NAwXPKnLm3O5Pitk2rgZzv1zzIeieEfn19e1lvh17zRWyachOW4K2lvC9DGdWQtK2uy3a8Z3CFJxJ8eod57h/Imtf+VMGQvHc2dy2r0NzqFsm8pYJe7AsRZdLq/7vjpqfC2cd+1Yg1iutmXUN8Ze2uGz13atwVZztec+rrFte8n31tpRe7xbHhdbjb3WuMnn/onlCqO+InsdoEy8craaqz33cY1t20u+t9aO2uPd8rjYauy1xk0+908sVxj1FdnrAGXilbPVXO25j2ts217yvbV21B7vlsfFVmOvNW7yuX9iucKor8heBygTr5yt5mrPfVxj2/aS7621o/Z4tzwuthp7rXGTz/0TyxVGfUX2OkCZeOVsNVd77uMa27aXfG+tHbXHu+VxsdXYa42bfO6fWK6iRv3du3dnlXw7dw8/EUIIIYQQmqOkUT8Xcu63//OHzUvM+h4559jYGlvN1Z77uMa27SXfbTv+YzOqPe9by6fWVsd0rXGTz/0Tm+/VGnUxuSHzuyXtdYAy8crZaq723Mc1tm0v+W7bMV5oalXted9aPrW2OqZrjZt87p/YfOeO+orijjpsNVd77uMa27aXfLftGC80tar2vG8tn1pbHdO1xk0+909svnNHfUXtdYAy8crZaq723Mc1tm21mG5v5b97o23HeKGpVfc+Fib2x9byqXVybmO5mlo+kXsfE4XUGleOrcZ9DmLzfb5Rv71e7Z9elXOHjO9Iv/rr5rsX32t+rMp+/NGH1uSLLn/460D5h813f3Lc/7hd7/8zU6/+Z2c/bH7wq/ExOcmxRayYyzUomXiDf2r5qvunlmP/7O+SBHKp/+lm/c8HH8slvq5QcXPQ+8s/Ndy1pztm9M8bByi+SG0tbulLqW8QgPyzz6bM7+MN9slx/Jo4Sio9kfXGyZVtx5WfzEA9S9C2Y7zQ9Lr9xMTzgeknr+zqEzNm5P2PTFzfMXGp7bpssK9SrDyj4rwbhmPPoP65ep3f2BhO9keEreVT6/QxPc7V1PI5lMQdXN/aDSZv4+vfEuterXHlmB33fcRnzlHf2jSeSzOMercY25Mvf6EX5NxSf8j8tvp184NHLgZl1H/yvebio79ufqn2saZcyh915b8SEz4092L4L01dQ6Pu7TND+QG6fi7XINeu22szoM0Ec9eI5lYGrRmoN93EmzsBk8dFcmkW04uDO6bdx04yKXd12fi8/Mu5TF3DiTe9j2aPgdrjtn1hFkbdH925j0Z9w22TeuU0buy6U67E4uPE9o8ud22I1LMQbTvGC00vayzNubUJPKOxzOe9Izj2ulxLTs0inRzD0f5Is7V8as0e07FcTS2fSS7u6Po2iqUjVDaDWuPKMTvuB+sXxnPphEdf5gVSgpw7ZHzHShvqX/7ww8Fd9VZi4PUd8vb9dz9S+4pxd8b+BMkgKGO9XK5BemwkLpSnXhiKjk/nUi4Kx8nk8GNu3x/MJ+h+35mx5+eRY2Nxd/Vem3P15zcXs6uD0eh822ybq1fulLSGbD0WHyd2wTnuNW7DOtecth3jhaZXZwCvDx+YeIZl5zCWZXkPjD29cCv8sSzv+4U+2R9htpZPrdljOparqeUzScftX5c8Qtekmdcpn1rjyjE77lPjKzq+xrVpPJeqNepickPmd6iUUVd31HW5vXs+vAt/+dHPhqbe7mPed3ftx2a/TPkcOtbL5Rok25UaoG6b3se8PrhPtleHdvDb7ea1GfjtJ15Z7GQyuP1SEyCVy7aO0UVczuctFPLr08EktfuY910M48kbZpkxUGHcto9MP8g5uzrlV4P9XRBb4than7QXXlud3D0xYzEc+3IsPU78BWa84KTqmU/bjvFC08sZQG0Ez2gsi/IeGHvyWpvDHrPv8fpk+sOYRjkm3x9htpZPrbljOparqeVzScbtrnvd2xGh7bljCqk1rhyz43bb9D7m9f79wngu7faOuhjv/nEXXWaSNnjE5VF7/Miom2N/LHfd5VGZkOEvkJyrjPVyuQbLTTxliPzt3WSzyEQYHJcinkuZSP6ktWWDiWSO74zZaOKZY21I1rwFJnCA/DxybCxu3Vc2Nqlbv9dsrG2CrVsutN0d0ZVZepwM8mTw36fqOYW2HeOFppcygDfuLvAZjWU+7+GxZ18fDnbM2bGqBkn/LKs5zt1ly/dHmK3lU2vumI7lamr5XJJxB69vCtkufe8rdUwhtcaVY3bcblu/z0PxC+O5tMs76tZ0Rx9dOd5p1+Z8YNQ9pballM+hY71crsFiE09+6ouGVeCurH9cVyy/4rTHDGZAOJd2Euk6Bxw/OevJNph4HqltmlPHQLVx930hMZi4u7sKx3LNVttm3wwXh5VYepz4uRjnZp1rTtuO8ULTyzeR8vqMxjKXd503/3XwWVYPuUbJMfn+CLO1fGrNHdOxXE0tn0sy7uD1TRHanjumkFrjyjE7brdN/3wQfmE8l3Z3R11MtX8n3VdrvH9mDfuw08OPucw16lJfGevlcg3SYyNhbIITL9Bub4KNjuuKw4xzKZMkd+egnUg3dgL6YyI0waZNvBI2FrfqC1unu/Mc7KNttc2vp7TeU1h8nMgjGGpBGj+3u841p23HeKHp5RnA2+sPzAe876iyX5j+TvwVk4WNZTrv7YIcHHvywTQ7RpSBz/ZHmK3lU2v2mI7lamr5TPJjIvHBPXT9K1q38tQaV47Zcbv49M/QNctvh39cVxymxrVpPJf2dUfdf/68kzXv8hy6fR9+dl2b8cH+9q/EzPvzjPkcOtbL5Rrk2uUGuvtNlP3Vj/7k20+gbiFzAzg2wU6ZeHJMILc2RnM1b+tSC6pCT67B/q496UAss8dA7XHrvtCxBvtoY22Thb9vQziOpVl6nNjyQRv83Hj1LETbjvFC02tkAOXurlngVFlrtH7RH3N78x3Tzz9q3y9sLMvzLinVi22XP/tWjRFrGtu8y/c3+r8oke2PMFvLp9ZJYzqUq6nlM8nFba875nyj9W0US0eobAa1xpVjdtwP1i+M59Ku7qjL30L3P9205vvXw7+jnr1rnt+/RHJ8Gevlcg3yY0MG6sEMeNcP3fNjoQkkg9gMervflf5ySGDimQzJBEn/WblhLmWRamM4qp1Mpjb95ZPALNITr2T/ECW5atlY3H4fOYLl2+uTY70mtrVdumH5ceLaYPIVbMOwnqVo2zFeaHoFDKDcBR78eUG5C3z4wOzX6aC2yfFee63pjJX3dYZVnnd/7BmMEXfnDD6jLmNSJTjdH2G2lk+tuWNaiOVqavkcSuIOrm/tBpNj7/oXu1ZOpNa4csyO28Wn43wQfmE8l04w6ush55YGhszvlnTOHK7JXtu1BlvN1Z77uMa2rRbTQv9aYyltO8YLTa2697EwsT+2lk+tk3Mby9XU8onc+5gopNa4cmw17nMQm+/VGvWQ8d2a5MPGHmHilbPVXO25j2ts217y3bZjvNDUqtrzvrV8am11TNcaN/ncP7H5zh31FbXXAcrEK2erudpzH9fYtr3ku23HeKGpVbXnfWv51NrqmK41bvK5f2LznTvqK4o76rDVXO25j2ts217y3bZjvNDUqtrzvrV8am11TNcaN/ncP7H5zh31FbXXAcrEK2erudpzH9fYtr3ku23HeKGpVbXnfWv51NrqmK41bvK5f2LzPWnUzy0x63v4iRBCCCGE0FRFjToAAAAAAJwPjDoAAAAAQIVg1AEAAAAAKgSjDgAAAABQIRh1AAAAAIAKwagDAAAAAFQIRh0AAAAAoEIw6gAAAAAAFYJRBwAAAACoEIw6AAAAAEB1NM3/A6pL5fQFe/wcAAAAAElFTkSuQmCC;imageBorder=default;" vertex="1" parent="WIyWlLk6GJQsqaUBKTNV-1">
          <mxGeometry x="155.5" y="450" width="339" height="60" as="geometry" />
        </mxCell>
      </root>
    </mxGraphModel>
  </diagram>
</mxfile>
